<?xml version="1.0" encoding="UTF-8"?>
<svg xmlns="http://www.w3.org/2000/svg" xmlns:xlink="http://www.w3.org/1999/xlink" width="700px" height="132px" viewBox="0 0 699 132" version="1.1">
<defs>
<clipPath id="clip1">
  <path d="M 678.078125 57.707031 L 696.539062 57.707031 L 696.539062 84 L 678.078125 84 Z M 678.078125 57.707031 "/>
</clipPath>
</defs>
<g id="surface1">
<path style=" stroke:none;fill-rule:nonzero;fill:rgb(0%,0%,0%);fill-opacity:1;" d="M 34.265625 66.804688 C 34.265625 72.355469 32.582031 76.597656 29.226562 79.5625 C 25.863281 82.507812 21.015625 83.96875 14.691406 83.96875 L 4.539062 83.96875 L 4.539062 50.292969 L 15.808594 50.292969 C 21.652344 50.292969 26.191406 51.753906 29.417969 54.660156 C 32.648438 57.550781 34.265625 61.601562 34.265625 66.804688 Z M 26.382812 66.984375 C 26.382812 59.757812 22.980469 56.144531 16.191406 56.144531 L 12.152344 56.144531 L 12.152344 78.078125 L 15.421875 78.078125 C 22.726562 78.078125 26.382812 74.382812 26.382812 66.984375 Z M 26.382812 66.984375 "/>
<path style=" stroke:none;fill-rule:nonzero;fill:rgb(0%,0%,0%);fill-opacity:1;" d="M 52.453125 62.722656 C 50.855469 62.722656 49.617188 63.207031 48.71875 64.164062 C 47.816406 65.105469 47.308594 66.445312 47.179688 68.179688 L 57.679688 68.179688 C 57.621094 66.445312 57.140625 65.105469 56.21875 64.164062 C 55.296875 63.207031 54.035156 62.722656 52.453125 62.722656 Z M 53.488281 84.445312 C 49.078125 84.445312 45.625 83.300781 43.144531 81.007812 C 40.683594 78.722656 39.453125 75.476562 39.453125 71.285156 C 39.453125 66.976562 40.585938 63.644531 42.875 61.273438 C 45.183594 58.917969 48.355469 57.738281 52.414062 57.738281 C 56.277344 57.738281 59.296875 58.769531 61.449219 60.839844 C 63.605469 62.921875 64.679688 65.78125 64.679688 69.441406 L 64.679688 72.839844 L 47.027344 72.839844 C 47.105469 74.847656 47.71875 76.410156 48.875 77.539062 C 50.046875 78.648438 51.703125 79.203125 53.835938 79.203125 C 55.5 79.203125 57.066406 79.046875 58.527344 78.730469 C 59.988281 78.398438 61.527344 77.882812 63.140625 77.175781 L 63.140625 82.597656 C 61.835938 83.230469 60.433594 83.683594 58.949219 83.96875 C 57.460938 84.28125 55.640625 84.445312 53.488281 84.445312 Z M 53.488281 84.445312 "/>
<path style=" stroke:none;fill-rule:nonzero;fill:rgb(0%,0%,0%);fill-opacity:1;" d="M 94.589844 58.242188 L 94.589844 61.785156 L 90.28125 62.828125 C 91.070312 63.988281 91.476562 65.277344 91.476562 66.699219 C 91.476562 69.46875 90.445312 71.628906 88.398438 73.164062 C 86.34375 74.710938 83.496094 75.476562 79.863281 75.476562 L 78.515625 75.40625 L 77.402344 75.296875 C 76.628906 75.855469 76.246094 76.472656 76.246094 77.140625 C 76.246094 78.152344 77.613281 78.65625 80.363281 78.65625 L 85.015625 78.65625 C 88.03125 78.65625 90.332031 79.261719 91.898438 80.46875 C 93.484375 81.675781 94.28125 83.453125 94.28125 85.816406 C 94.28125 88.824219 92.9375 91.164062 90.246094 92.828125 C 87.574219 94.488281 83.746094 95.320312 78.746094 95.320312 C 74.917969 95.320312 71.996094 94.683594 69.976562 93.4375 C 67.980469 92.183594 66.976562 90.421875 66.976562 88.164062 C 66.976562 86.621094 67.488281 85.320312 68.515625 84.257812 C 69.535156 83.230469 71.054688 82.480469 73.054688 82.019531 C 72.285156 81.730469 71.601562 81.242188 71.015625 80.539062 C 70.449219 79.84375 70.171875 79.09375 70.171875 78.296875 C 70.171875 77.308594 70.457031 76.492188 71.054688 75.839844 C 71.671875 75.1875 72.554688 74.558594 73.710938 73.925781 C 72.265625 73.347656 71.132812 72.425781 70.285156 71.140625 C 69.441406 69.839844 69.015625 68.316406 69.015625 66.550781 C 69.015625 63.761719 69.988281 61.589844 71.941406 60.046875 C 73.882812 58.511719 76.667969 57.738281 80.285156 57.738281 C 81.054688 57.738281 81.957031 57.808594 83.015625 57.953125 C 84.0625 58.078125 84.726562 58.167969 85.015625 58.242188 Z M 73.441406 87.617188 C 73.441406 88.578125 73.921875 89.335938 74.902344 89.898438 C 75.902344 90.449219 77.296875 90.730469 79.089844 90.730469 C 81.753906 90.730469 83.839844 90.378906 85.359375 89.679688 C 86.898438 88.976562 87.667969 88.039062 87.667969 86.867188 C 87.667969 85.898438 87.214844 85.21875 86.320312 84.835938 C 85.417969 84.476562 84.023438 84.296875 82.128906 84.296875 L 78.285156 84.296875 C 76.898438 84.296875 75.746094 84.59375 74.824219 85.199219 C 73.898438 85.792969 73.441406 86.609375 73.441406 87.617188 Z M 76.171875 66.660156 C 76.171875 68.058594 76.496094 69.171875 77.167969 69.984375 C 77.859375 70.777344 78.902344 71.175781 80.285156 71.175781 C 81.6875 71.175781 82.71875 70.777344 83.359375 69.984375 C 84.023438 69.171875 84.363281 68.058594 84.363281 66.660156 C 84.363281 63.554688 82.996094 62 80.285156 62 C 77.535156 62 76.171875 63.554688 76.171875 66.660156 Z M 76.171875 66.660156 "/>
<path style=" stroke:none;fill-rule:nonzero;fill:rgb(0%,0%,0%);fill-opacity:1;" d="M 110.4375 62.722656 C 108.84375 62.722656 107.601562 63.207031 106.710938 64.164062 C 105.804688 65.105469 105.296875 66.445312 105.171875 68.179688 L 115.671875 68.179688 C 115.613281 66.445312 115.132812 65.105469 114.210938 64.164062 C 113.285156 63.207031 112.027344 62.722656 110.4375 62.722656 Z M 111.480469 84.445312 C 107.0625 84.445312 103.613281 83.300781 101.132812 81.007812 C 98.671875 78.722656 97.441406 75.476562 97.441406 71.285156 C 97.441406 66.976562 98.578125 63.644531 100.863281 61.273438 C 103.171875 58.917969 106.34375 57.738281 110.402344 57.738281 C 114.265625 57.738281 117.285156 58.769531 119.4375 60.839844 C 121.59375 62.921875 122.671875 65.78125 122.671875 69.441406 L 122.671875 72.839844 L 105.015625 72.839844 C 105.09375 74.847656 105.710938 76.410156 106.863281 77.539062 C 108.035156 78.648438 109.6875 79.203125 111.824219 79.203125 C 113.488281 79.203125 115.054688 79.046875 116.515625 78.730469 C 117.976562 78.398438 119.515625 77.882812 121.132812 77.175781 L 121.132812 82.597656 C 119.824219 83.230469 118.417969 83.683594 116.941406 83.96875 C 115.449219 84.28125 113.632812 84.445312 111.480469 84.445312 Z M 111.480469 84.445312 "/>
<path style=" stroke:none;fill-rule:nonzero;fill:rgb(0%,0%,0%);fill-opacity:1;" d="M 154.042969 83.96875 L 146.546875 83.96875 L 146.546875 68.9375 C 146.546875 67.085938 146.179688 65.703125 145.46875 64.78125 C 144.777344 63.84375 143.671875 63.371094 142.160156 63.371094 C 140.058594 63.371094 138.527344 64.042969 137.585938 65.359375 C 136.664062 66.660156 136.203125 68.832031 136.203125 71.867188 L 136.203125 83.96875 L 128.742188 83.96875 L 128.742188 58.242188 L 134.433594 58.242188 L 135.46875 61.527344 L 135.855469 61.527344 C 136.699219 60.28125 137.855469 59.34375 139.316406 58.707031 C 140.777344 58.058594 142.441406 57.738281 144.316406 57.738281 C 147.488281 57.738281 149.902344 58.554688 151.546875 60.191406 C 153.210938 61.808594 154.042969 64.132812 154.042969 67.167969 Z M 154.042969 83.96875 "/>
<path style=" stroke:none;fill-rule:nonzero;fill:rgb(0%,0%,0%);fill-opacity:1;" d="M 173.058594 62.722656 C 171.460938 62.722656 170.222656 63.207031 169.328125 64.164062 C 168.421875 65.105469 167.914062 66.445312 167.789062 68.179688 L 178.289062 68.179688 C 178.230469 66.445312 177.75 65.105469 176.824219 64.164062 C 175.902344 63.207031 174.644531 62.722656 173.058594 62.722656 Z M 174.09375 84.445312 C 169.683594 84.445312 166.230469 83.300781 163.75 81.007812 C 161.289062 78.722656 160.058594 75.476562 160.058594 71.285156 C 160.058594 66.976562 161.191406 63.644531 163.480469 61.273438 C 165.789062 58.917969 168.960938 57.738281 173.019531 57.738281 C 176.882812 57.738281 179.902344 58.769531 182.058594 60.839844 C 184.210938 62.921875 185.285156 65.78125 185.285156 69.441406 L 185.285156 72.839844 L 167.636719 72.839844 C 167.710938 74.847656 168.328125 76.410156 169.480469 77.539062 C 170.652344 78.648438 172.308594 79.203125 174.441406 79.203125 C 176.105469 79.203125 177.671875 79.046875 179.132812 78.730469 C 180.597656 78.398438 182.132812 77.882812 183.75 77.175781 L 183.75 82.597656 C 182.441406 83.230469 181.039062 83.683594 179.554688 83.96875 C 178.066406 84.28125 176.25 84.445312 174.09375 84.445312 Z M 174.09375 84.445312 "/>
<path style=" stroke:none;fill-rule:nonzero;fill:rgb(0%,0%,0%);fill-opacity:1;" d="M 206.664062 57.738281 C 207.664062 57.738281 208.492188 57.808594 209.164062 57.953125 L 208.625 64.527344 C 208.011719 64.382812 207.261719 64.3125 206.394531 64.3125 C 204.011719 64.3125 202.148438 64.886719 200.820312 66.046875 C 199.484375 67.183594 198.820312 68.78125 198.820312 70.851562 L 198.820312 83.96875 L 191.359375 83.96875 L 191.359375 58.242188 L 197.011719 58.242188 L 198.128906 62.539062 L 198.472656 62.539062 C 199.335938 61.097656 200.492188 59.941406 201.933594 59.070312 C 203.367188 58.183594 204.945312 57.738281 206.664062 57.738281 Z M 206.664062 57.738281 "/>
<path style=" stroke:none;fill-rule:nonzero;fill:rgb(0%,0%,0%);fill-opacity:1;" d="M 231.527344 83.96875 L 230.105469 80.46875 L 229.910156 80.46875 C 228.652344 81.964844 227.355469 82.996094 226.027344 83.570312 C 224.691406 84.152344 222.949219 84.445312 220.796875 84.445312 C 218.183594 84.445312 216.117188 83.734375 214.605469 82.3125 C 213.085938 80.890625 212.335938 78.875 212.335938 76.277344 C 212.335938 73.558594 213.347656 71.539062 215.375 70.238281 C 217.394531 68.9375 220.460938 68.214844 224.566406 68.070312 L 229.335938 67.964844 L 229.335938 66.804688 C 229.335938 64.207031 227.914062 62.898438 225.066406 62.898438 C 222.882812 62.898438 220.308594 63.535156 217.335938 64.78125 L 214.875 60.011719 C 218.027344 58.476562 221.53125 57.699219 225.375 57.699219 C 229.039062 57.699219 231.84375 58.460938 233.796875 59.972656 C 235.769531 61.472656 236.757812 63.753906 236.757812 66.804688 L 236.757812 83.96875 Z M 229.335938 72.042969 L 226.453125 72.117188 C 224.269531 72.191406 222.644531 72.570312 221.566406 73.238281 C 220.511719 73.914062 219.988281 74.9375 219.988281 76.308594 C 219.988281 78.316406 221.203125 79.308594 223.644531 79.308594 C 225.355469 79.308594 226.730469 78.839844 227.757812 77.898438 C 228.808594 76.957031 229.335938 75.722656 229.335938 74.179688 Z M 229.335938 72.042969 "/>
<path style=" stroke:none;fill-rule:nonzero;fill:rgb(0%,0%,0%);fill-opacity:1;" d="M 255.984375 78.839844 C 257.292969 78.839844 258.851562 78.578125 260.679688 78.046875 L 260.679688 83.25 C 258.832031 84.042969 256.542969 84.445312 253.832031 84.445312 C 250.832031 84.445312 248.648438 83.734375 247.292969 82.3125 C 245.929688 80.890625 245.257812 78.757812 245.257812 75.914062 L 245.257812 63.515625 L 241.679688 63.515625 L 241.679688 60.519531 L 245.796875 58.167969 L 247.949219 52.746094 L 252.714844 52.746094 L 252.714844 58.242188 L 260.410156 58.242188 L 260.410156 63.515625 L 252.714844 63.515625 L 252.714844 75.914062 C 252.714844 76.90625 253.007812 77.636719 253.601562 78.117188 C 254.214844 78.605469 255.003906 78.839844 255.984375 78.839844 Z M 255.984375 78.839844 "/>
<path style=" stroke:none;fill-rule:nonzero;fill:rgb(0%,0%,0%);fill-opacity:1;" d="M 277.574219 62.722656 C 275.976562 62.722656 274.738281 63.207031 273.84375 64.164062 C 272.941406 65.105469 272.429688 66.445312 272.308594 68.179688 L 282.804688 68.179688 C 282.75 66.445312 282.269531 65.105469 281.34375 64.164062 C 280.421875 63.207031 279.164062 62.722656 277.574219 62.722656 Z M 278.613281 84.445312 C 274.199219 84.445312 270.75 83.300781 268.269531 81.007812 C 265.804688 78.722656 264.574219 75.476562 264.574219 71.285156 C 264.574219 66.976562 265.710938 63.644531 268 61.273438 C 270.304688 58.917969 273.480469 57.738281 277.535156 57.738281 C 281.402344 57.738281 284.421875 58.769531 286.574219 60.839844 C 288.726562 62.921875 289.804688 65.78125 289.804688 69.441406 L 289.804688 72.839844 L 272.152344 72.839844 C 272.230469 74.847656 272.847656 76.410156 273.996094 77.539062 C 275.171875 78.648438 276.824219 79.203125 278.960938 79.203125 C 280.621094 79.203125 282.1875 79.046875 283.652344 78.730469 C 285.113281 78.398438 286.652344 77.882812 288.265625 77.175781 L 288.265625 82.597656 C 286.957031 83.230469 285.554688 83.683594 284.074219 83.96875 C 282.585938 84.28125 280.769531 84.445312 278.613281 84.445312 Z M 278.613281 84.445312 "/>
<path style=" stroke:none;fill-rule:nonzero;fill:rgb(0%,0%,0%);fill-opacity:1;" d="M 324.714844 55.75 C 321.839844 55.75 319.617188 56.757812 318.058594 58.78125 C 316.492188 60.804688 315.714844 63.625 315.714844 67.238281 C 315.714844 74.734375 318.714844 78.480469 324.714844 78.480469 C 327.222656 78.480469 330.269531 77.890625 333.867188 76.707031 L 333.867188 82.703125 C 330.914062 83.859375 327.617188 84.445312 323.984375 84.445312 C 318.773438 84.445312 314.792969 82.960938 312.023438 79.996094 C 309.273438 77.015625 307.910156 72.730469 307.910156 67.167969 C 307.910156 63.679688 308.582031 60.613281 309.949219 57.984375 C 311.300781 55.371094 313.253906 53.351562 315.792969 51.953125 C 318.328125 50.53125 321.300781 49.816406 324.714844 49.816406 C 328.195312 49.816406 331.695312 50.613281 335.214844 52.203125 L 332.753906 57.984375 C 331.417969 57.386719 330.070312 56.867188 328.714844 56.433594 C 327.347656 55.980469 326.023438 55.75 324.714844 55.75 Z M 324.714844 55.75 "/>
<path style=" stroke:none;fill-rule:nonzero;fill:rgb(0%,0%,0%);fill-opacity:1;" d="M 346.839844 71.066406 C 346.839844 73.597656 347.273438 75.535156 348.148438 76.851562 C 349.042969 78.152344 350.503906 78.804688 352.535156 78.804688 C 354.503906 78.804688 355.925781 78.152344 356.800781 76.851562 C 357.695312 75.550781 358.148438 73.628906 358.148438 71.066406 C 358.148438 68.519531 357.695312 66.605469 356.800781 65.320312 C 355.925781 64.050781 354.476562 63.40625 352.457031 63.40625 C 350.476562 63.40625 349.042969 64.050781 348.148438 65.320312 C 347.273438 66.578125 346.839844 68.492188 346.839844 71.066406 Z M 365.761719 71.066406 C 365.761719 75.246094 364.582031 78.511719 362.226562 80.898438 C 359.886719 83.265625 356.621094 84.445312 352.417969 84.445312 C 349.773438 84.445312 347.457031 83.898438 345.457031 82.816406 C 343.457031 81.730469 341.917969 80.175781 340.839844 78.152344 C 339.765625 76.132812 339.226562 73.773438 339.226562 71.066406 C 339.226562 66.863281 340.390625 63.578125 342.726562 61.238281 C 345.054688 58.910156 348.339844 57.738281 352.570312 57.738281 C 355.1875 57.738281 357.492188 58.273438 359.496094 59.359375 C 361.511719 60.425781 363.070312 61.960938 364.148438 63.988281 C 365.226562 65.988281 365.761719 68.351562 365.761719 71.066406 Z M 365.761719 71.066406 "/>
<path style=" stroke:none;fill-rule:nonzero;fill:rgb(0%,0%,0%);fill-opacity:1;" d="M 380.636719 84.445312 C 377.40625 84.445312 374.867188 83.273438 373.019531 80.933594 C 371.195312 78.578125 370.289062 75.316406 370.289062 71.140625 C 370.289062 66.933594 371.222656 63.644531 373.097656 61.273438 C 374.964844 58.917969 377.539062 57.738281 380.828125 57.738281 C 384.261719 57.738281 386.882812 59 388.710938 61.527344 L 388.945312 61.527344 C 388.578125 59.601562 388.40625 57.898438 388.40625 56.398438 L 388.40625 48.160156 L 395.90625 48.160156 L 395.90625 83.96875 L 390.136719 83.96875 L 388.710938 80.644531 L 388.40625 80.644531 C 386.683594 83.179688 384.097656 84.445312 380.636719 84.445312 Z M 383.25 78.839844 C 385.144531 78.839844 386.539062 78.324219 387.445312 77.285156 C 388.335938 76.226562 388.828125 74.449219 388.90625 71.9375 L 388.90625 71.175781 C 388.90625 68.433594 388.441406 66.460938 387.519531 65.25 C 386.617188 64.050781 385.15625 63.445312 383.136719 63.445312 C 381.460938 63.445312 380.175781 64.113281 379.253906 65.429688 C 378.328125 66.761719 377.867188 68.703125 377.867188 71.253906 C 377.867188 73.777344 378.328125 75.6875 379.253906 76.957031 C 380.175781 78.214844 381.503906 78.839844 383.25 78.839844 Z M 383.25 78.839844 "/>
<path style=" stroke:none;fill-rule:nonzero;fill:rgb(0%,0%,0%);fill-opacity:1;" d="M 409.65625 71.066406 C 409.65625 73.597656 410.089844 75.535156 410.964844 76.851562 C 411.859375 78.152344 413.320312 78.804688 415.347656 78.804688 C 417.320312 78.804688 418.742188 78.152344 419.617188 76.851562 C 420.511719 75.550781 420.960938 73.628906 420.960938 71.066406 C 420.960938 68.519531 420.511719 66.605469 419.617188 65.320312 C 418.742188 64.050781 417.292969 63.40625 415.273438 63.40625 C 413.292969 63.40625 411.859375 64.050781 410.964844 65.320312 C 410.089844 66.578125 409.65625 68.492188 409.65625 71.066406 Z M 428.578125 71.066406 C 428.578125 75.246094 427.394531 78.511719 425.039062 80.898438 C 422.703125 83.265625 419.433594 84.445312 415.230469 84.445312 C 412.589844 84.445312 410.273438 83.898438 408.273438 82.816406 C 406.273438 81.730469 404.734375 80.175781 403.65625 78.152344 C 402.582031 76.132812 402.042969 73.773438 402.042969 71.066406 C 402.042969 66.863281 403.207031 63.578125 405.542969 61.238281 C 407.871094 58.910156 411.15625 57.738281 415.386719 57.738281 C 418.003906 57.738281 420.308594 58.273438 422.308594 59.359375 C 424.328125 60.425781 425.886719 61.960938 426.960938 63.988281 C 428.039062 65.988281 428.578125 68.351562 428.578125 71.066406 Z M 428.578125 71.066406 "/>
<path style=" stroke:none;fill-rule:nonzero;fill:rgb(0%,0%,0%);fill-opacity:1;" d="M 460.070312 83.96875 L 452.570312 83.96875 L 452.570312 68.9375 C 452.570312 67.085938 452.203125 65.703125 451.492188 64.78125 C 450.800781 63.84375 449.695312 63.371094 448.183594 63.371094 C 446.082031 63.371094 444.550781 64.042969 443.609375 65.359375 C 442.6875 66.660156 442.226562 68.832031 442.226562 71.867188 L 442.226562 83.96875 L 434.765625 83.96875 L 434.765625 58.242188 L 440.457031 58.242188 L 441.492188 61.527344 L 441.878906 61.527344 C 442.722656 60.28125 443.878906 59.34375 445.339844 58.707031 C 446.800781 58.058594 448.464844 57.738281 450.339844 57.738281 C 453.511719 57.738281 455.925781 58.554688 457.570312 60.191406 C 459.234375 61.808594 460.070312 64.132812 460.070312 67.167969 Z M 460.070312 83.96875 "/>
<path style=" stroke:none;fill-rule:nonzero;fill:rgb(0%,0%,0%);fill-opacity:1;" d="M 511.074219 66.804688 C 511.074219 72.355469 509.390625 76.597656 506.035156 79.5625 C 502.671875 82.507812 497.824219 83.96875 491.496094 83.96875 L 481.347656 83.96875 L 481.347656 50.292969 L 492.613281 50.292969 C 498.457031 50.292969 502.996094 51.753906 506.226562 54.660156 C 509.460938 57.550781 511.074219 61.601562 511.074219 66.804688 Z M 503.191406 66.984375 C 503.191406 59.757812 499.785156 56.144531 492.996094 56.144531 L 488.960938 56.144531 L 488.960938 78.078125 L 492.230469 78.078125 C 499.535156 78.078125 503.191406 74.382812 503.191406 66.984375 Z M 503.191406 66.984375 "/>
<path style=" stroke:none;fill-rule:nonzero;fill:rgb(0%,0%,0%);fill-opacity:1;" d="M 529.253906 62.722656 C 527.660156 62.722656 526.417969 63.207031 525.523438 64.164062 C 524.621094 65.105469 524.109375 66.445312 523.984375 68.179688 L 534.484375 68.179688 C 534.425781 66.445312 533.945312 65.105469 533.023438 64.164062 C 532.101562 63.207031 530.839844 62.722656 529.253906 62.722656 Z M 530.292969 84.445312 C 525.878906 84.445312 522.429688 83.300781 519.949219 81.007812 C 517.488281 78.722656 516.257812 75.476562 516.257812 71.285156 C 516.257812 66.976562 517.390625 63.644531 519.679688 61.273438 C 521.988281 58.917969 525.160156 57.738281 529.214844 57.738281 C 533.082031 57.738281 536.097656 58.769531 538.253906 60.839844 C 540.40625 62.921875 541.484375 65.78125 541.484375 69.441406 L 541.484375 72.839844 L 523.832031 72.839844 C 523.910156 74.847656 524.523438 76.410156 525.679688 77.539062 C 526.851562 78.648438 528.503906 79.203125 530.636719 79.203125 C 532.300781 79.203125 533.871094 79.046875 535.332031 78.730469 C 536.792969 78.398438 538.332031 77.882812 539.945312 77.175781 L 539.945312 82.597656 C 538.636719 83.230469 537.234375 83.683594 535.753906 83.96875 C 534.261719 84.28125 532.445312 84.445312 530.292969 84.445312 Z M 530.292969 84.445312 "/>
<path style=" stroke:none;fill-rule:nonzero;fill:rgb(0%,0%,0%);fill-opacity:1;" d="M 566.671875 76.308594 C 566.671875 78.964844 565.691406 80.988281 563.75 82.382812 C 561.796875 83.753906 558.875 84.445312 554.980469 84.445312 C 552.984375 84.445312 551.273438 84.304688 549.867188 84.042969 C 548.484375 83.804688 547.175781 83.425781 545.945312 82.921875 L 545.945312 77.140625 C 547.328125 77.75 548.886719 78.265625 550.636719 78.695312 C 552.375 79.109375 553.90625 79.308594 555.210938 79.308594 C 557.925781 79.308594 559.289062 78.566406 559.289062 77.070312 C 559.289062 76.546875 559.105469 76.113281 558.75 75.765625 C 558.386719 75.40625 557.761719 75.011719 556.867188 74.578125 C 555.992188 74.144531 554.828125 73.628906 553.367188 73.023438 C 551.261719 72.207031 549.714844 71.445312 548.714844 70.742188 C 547.734375 70.023438 547.019531 69.210938 546.5625 68.285156 C 546.117188 67.378906 545.90625 66.253906 545.90625 64.925781 C 545.90625 62.640625 546.839844 60.871094 548.714844 59.613281 C 550.605469 58.367188 553.289062 57.738281 556.75 57.738281 C 560.058594 57.738281 563.261719 58.410156 566.367188 59.757812 L 564.136719 64.816406 C 562.75 64.292969 561.453125 63.84375 560.25 63.480469 C 559.066406 63.117188 557.867188 62.9375 556.636719 62.9375 C 554.425781 62.9375 553.328125 63.507812 553.328125 64.640625 C 553.328125 65.265625 553.675781 65.8125 554.367188 66.265625 C 555.078125 66.722656 556.644531 67.410156 559.058594 68.324219 C 561.183594 69.117188 562.75 69.878906 563.75 70.601562 C 564.75 71.304688 565.480469 72.117188 565.941406 73.054688 C 566.425781 73.980469 566.671875 75.0625 566.671875 76.308594 Z M 566.671875 76.308594 "/>
<path style=" stroke:none;fill-rule:nonzero;fill:rgb(0%,0%,0%);fill-opacity:1;" d="M 572.191406 51.558594 C 572.191406 49.296875 573.539062 48.160156 576.230469 48.160156 C 578.941406 48.160156 580.304688 49.296875 580.304688 51.558594 C 580.304688 52.664062 579.960938 53.523438 579.269531 54.121094 C 578.59375 54.726562 577.585938 55.023438 576.230469 55.023438 C 573.539062 55.023438 572.191406 53.867188 572.191406 51.558594 Z M 579.960938 83.96875 L 572.5 83.96875 L 572.5 58.242188 L 579.960938 58.242188 Z M 579.960938 83.96875 "/>
<path style=" stroke:none;fill-rule:nonzero;fill:rgb(0%,0%,0%);fill-opacity:1;" d="M 611.652344 58.242188 L 611.652344 61.785156 L 607.347656 62.828125 C 608.132812 63.988281 608.539062 65.277344 608.539062 66.699219 C 608.539062 69.46875 607.511719 71.628906 605.460938 73.164062 C 603.40625 74.710938 600.558594 75.476562 596.925781 75.476562 L 595.578125 75.40625 L 594.464844 75.296875 C 593.695312 75.855469 593.308594 76.472656 593.308594 77.140625 C 593.308594 78.152344 594.675781 78.65625 597.425781 78.65625 L 602.078125 78.65625 C 605.097656 78.65625 607.394531 79.261719 608.960938 80.46875 C 610.546875 81.675781 611.34375 83.453125 611.34375 85.816406 C 611.34375 88.824219 610 91.164062 607.308594 92.828125 C 604.636719 94.488281 600.808594 95.320312 595.808594 95.320312 C 591.984375 95.320312 589.058594 94.683594 587.039062 93.4375 C 585.042969 92.183594 584.039062 90.421875 584.039062 88.164062 C 584.039062 86.621094 584.550781 85.320312 585.578125 84.257812 C 586.597656 83.230469 588.117188 82.480469 590.117188 82.019531 C 589.347656 81.730469 588.667969 81.242188 588.082031 80.539062 C 587.511719 79.84375 587.234375 79.09375 587.234375 78.296875 C 587.234375 77.308594 587.519531 76.492188 588.117188 75.839844 C 588.734375 75.1875 589.617188 74.558594 590.773438 73.925781 C 589.328125 73.347656 588.195312 72.425781 587.347656 71.140625 C 586.503906 69.839844 586.078125 68.316406 586.078125 66.550781 C 586.078125 63.761719 587.050781 61.589844 589.003906 60.046875 C 590.945312 58.511719 593.730469 57.738281 597.347656 57.738281 C 598.117188 57.738281 599.019531 57.808594 600.078125 57.953125 C 601.125 58.078125 601.789062 58.167969 602.078125 58.242188 Z M 590.503906 87.617188 C 590.503906 88.578125 590.984375 89.335938 591.964844 89.898438 C 592.964844 90.449219 594.359375 90.730469 596.15625 90.730469 C 598.816406 90.730469 600.902344 90.378906 602.425781 89.679688 C 603.960938 88.976562 604.730469 88.039062 604.730469 86.867188 C 604.730469 85.898438 604.277344 85.21875 603.386719 84.835938 C 602.484375 84.476562 601.089844 84.296875 599.191406 84.296875 L 595.347656 84.296875 C 593.964844 84.296875 592.808594 84.59375 591.886719 85.199219 C 590.964844 85.792969 590.503906 86.609375 590.503906 87.617188 Z M 593.234375 66.660156 C 593.234375 68.058594 593.558594 69.171875 594.234375 69.984375 C 594.925781 70.777344 595.964844 71.175781 597.347656 71.175781 C 598.75 71.175781 599.78125 70.777344 600.421875 69.984375 C 601.089844 69.171875 601.425781 68.058594 601.425781 66.660156 C 601.425781 63.554688 600.058594 62 597.347656 62 C 594.597656 62 593.234375 63.554688 593.234375 66.660156 Z M 593.234375 66.660156 "/>
<path style=" stroke:none;fill-rule:nonzero;fill:rgb(0%,0%,0%);fill-opacity:1;" d="M 641.460938 83.96875 L 633.960938 83.96875 L 633.960938 68.9375 C 633.960938 67.085938 633.59375 65.703125 632.882812 64.78125 C 632.191406 63.84375 631.085938 63.371094 629.574219 63.371094 C 627.46875 63.371094 625.941406 64.042969 624.996094 65.359375 C 624.074219 66.660156 623.613281 68.832031 623.613281 71.867188 L 623.613281 83.96875 L 616.152344 83.96875 L 616.152344 58.242188 L 621.84375 58.242188 L 622.882812 61.527344 L 623.269531 61.527344 C 624.113281 60.28125 625.265625 59.34375 626.730469 58.707031 C 628.191406 58.058594 629.855469 57.738281 631.730469 57.738281 C 634.902344 57.738281 637.3125 58.554688 638.957031 60.191406 C 640.621094 61.808594 641.460938 64.132812 641.460938 67.167969 Z M 641.460938 83.96875 "/>
<path style=" stroke:none;fill-rule:nonzero;fill:rgb(0%,0%,0%);fill-opacity:1;" d="M 660.476562 62.722656 C 658.878906 62.722656 657.640625 63.207031 656.746094 64.164062 C 655.839844 65.105469 655.332031 66.445312 655.207031 68.179688 L 665.707031 68.179688 C 665.648438 66.445312 665.167969 65.105469 664.242188 64.164062 C 663.320312 63.207031 662.0625 62.722656 660.476562 62.722656 Z M 661.511719 84.445312 C 657.101562 84.445312 653.648438 83.300781 651.167969 81.007812 C 648.707031 78.722656 647.476562 75.476562 647.476562 71.285156 C 647.476562 66.976562 648.609375 63.644531 650.898438 61.273438 C 653.207031 58.917969 656.378906 57.738281 660.4375 57.738281 C 664.300781 57.738281 667.320312 58.769531 669.472656 60.839844 C 671.628906 62.921875 672.703125 65.78125 672.703125 69.441406 L 672.703125 72.839844 L 655.054688 72.839844 C 655.128906 74.847656 655.746094 76.410156 656.898438 77.539062 C 658.070312 78.648438 659.726562 79.203125 661.859375 79.203125 C 663.523438 79.203125 665.089844 79.046875 666.550781 78.730469 C 668.015625 78.398438 669.550781 77.882812 671.167969 77.175781 L 671.167969 82.597656 C 669.859375 83.230469 668.457031 83.683594 666.972656 83.96875 C 665.484375 84.28125 663.667969 84.445312 661.511719 84.445312 Z M 661.511719 84.445312 "/>
<g clip-path="url(#clip1)" clip-rule="nonzero">
<path style=" stroke:none;fill-rule:nonzero;fill:rgb(0%,0%,0%);fill-opacity:1;" d="M 694.082031 57.738281 C 695.082031 57.738281 695.90625 57.808594 696.582031 57.953125 L 696.042969 64.527344 C 695.425781 64.382812 694.675781 64.3125 693.8125 64.3125 C 691.429688 64.3125 689.5625 64.886719 688.238281 66.046875 C 686.898438 67.183594 686.238281 68.78125 686.238281 70.851562 L 686.238281 83.96875 L 678.777344 83.96875 L 678.777344 58.242188 L 684.429688 58.242188 L 685.546875 62.539062 L 685.890625 62.539062 C 686.753906 61.097656 687.910156 59.941406 689.351562 59.070312 C 690.785156 58.183594 692.359375 57.738281 694.082031 57.738281 Z M 694.082031 57.738281 "/>
</g>
<path style=" stroke:none;fill-rule:nonzero;fill:rgb(100%,100%,100%);fill-opacity:1;" d="M 352.375 55.726562 C 343.617188 55.726562 336.519531 62.394531 336.519531 70.613281 C 336.519531 78.847656 343.617188 85.515625 352.375 85.515625 C 361.125 85.515625 368.21875 78.847656 368.21875 70.613281 C 368.21875 62.394531 361.125 55.726562 352.375 55.726562 Z M 352.375 55.726562 "/>
<path style=" stroke:none;fill-rule:nonzero;fill:rgb(32.156863%,44.313725%,100%);fill-opacity:1;" d="M 344.929688 69.558594 L 343.929688 69.8125 L 343.929688 71.441406 L 344.929688 71.691406 L 344.929688 73.210938 L 339.542969 71.550781 L 339.542969 69.742188 L 344.929688 68.082031 Z M 342.738281 70.097656 L 341.851562 70.316406 C 341.648438 70.367188 341.390625 70.425781 341.082031 70.5 C 340.773438 70.574219 340.5625 70.625 340.429688 70.644531 C 340.535156 70.667969 340.734375 70.714844 341.042969 70.789062 C 341.332031 70.84375 341.890625 70.964844 342.738281 71.183594 Z M 342.738281 70.097656 "/>
<path style=" stroke:none;fill-rule:nonzero;fill:rgb(100%,56.862745%,30.196078%);fill-opacity:1;" d="M 348.019531 64.828125 L 347.019531 65.765625 L 344.058594 62.980469 L 343.136719 63.847656 L 342.289062 63.054688 L 345.136719 60.378906 L 345.980469 61.175781 L 345.058594 62.042969 Z M 348.019531 64.828125 "/>
<path style=" stroke:none;fill-rule:nonzero;fill:rgb(100%,40%,76.862745%);fill-opacity:1;" d="M 352.511719 59.898438 L 354.855469 59.898438 L 354.855469 62.605469 C 354.210938 62.824219 353.519531 62.929688 352.777344 62.929688 C 351.933594 62.929688 351.28125 62.703125 350.816406 62.246094 C 350.375 61.792969 350.164062 61.152344 350.164062 60.332031 C 350.164062 59.515625 350.402344 58.875 350.894531 58.414062 C 351.402344 57.960938 352.097656 57.726562 352.96875 57.726562 C 353.328125 57.726562 353.644531 57.765625 353.929688 57.839844 C 354.238281 57.890625 354.507812 57.960938 354.738281 58.054688 L 354.277344 59.136719 C 353.894531 58.949219 353.472656 58.847656 353.007812 58.847656 C 352.566406 58.847656 352.242188 58.980469 352.007812 59.246094 C 351.777344 59.515625 351.664062 59.886719 351.664062 60.363281 C 351.664062 60.828125 351.761719 61.1875 351.972656 61.449219 C 352.171875 61.691406 352.480469 61.8125 352.894531 61.8125 C 353.097656 61.8125 353.289062 61.792969 353.472656 61.742188 L 353.472656 60.941406 L 352.511719 60.941406 Z M 352.511719 59.898438 "/>
<path style=" stroke:none;fill-rule:nonzero;fill:rgb(49.411765%,85.098039%,34.117647%);fill-opacity:1;" d="M 361.0625 62.808594 C 360.832031 62.59375 360.542969 62.519531 360.214844 62.59375 C 359.90625 62.652344 359.570312 62.839844 359.214844 63.167969 C 358.496094 63.835938 358.417969 64.445312 358.984375 64.980469 C 359.136719 65.125 359.300781 65.238281 359.484375 65.339844 C 359.6875 65.457031 359.90625 65.554688 360.140625 65.628906 L 359.253906 66.460938 C 358.8125 66.289062 358.386719 66.011719 357.984375 65.628906 C 357.417969 65.097656 357.148438 64.527344 357.175781 63.929688 C 357.195312 63.332031 357.523438 62.734375 358.136719 62.160156 C 358.523438 61.796875 358.925781 61.542969 359.367188 61.398438 C 359.832031 61.238281 360.273438 61.210938 360.714844 61.328125 C 361.148438 61.457031 361.558594 61.691406 361.945312 62.054688 C 362.347656 62.441406 362.65625 62.898438 362.871094 63.425781 L 361.753906 63.894531 C 361.675781 63.679688 361.582031 63.488281 361.484375 63.316406 C 361.378906 63.15625 361.234375 62.980469 361.0625 62.808594 Z M 361.0625 62.808594 "/>
<path style=" stroke:none;fill-rule:nonzero;fill:rgb(100%,8.627451%,8.627451%);fill-opacity:1;" d="M 360.023438 73.042969 L 360.023438 71.269531 L 363.832031 69.425781 L 363.832031 69.394531 C 363.214844 69.4375 362.753906 69.464844 362.445312 69.464844 L 360.023438 69.464844 L 360.023438 68.234375 L 365.40625 68.234375 L 365.40625 70.042969 L 361.675781 71.847656 L 361.675781 71.886719 C 362.214844 71.855469 362.648438 71.847656 362.984375 71.847656 L 365.40625 71.847656 L 365.40625 73.042969 Z M 360.023438 73.042969 "/>
<path style=" stroke:none;fill-rule:nonzero;fill:rgb(100%,74.117647%,34.901961%);fill-opacity:1;" d="M 355.316406 83.226562 L 353.433594 83.226562 C 352.722656 83.226562 352.183594 83.113281 351.816406 82.898438 C 351.460938 82.699219 351.28125 82.394531 351.28125 81.960938 C 351.28125 81.671875 351.355469 81.425781 351.507812 81.238281 C 351.664062 81.039062 351.875 80.910156 352.125 80.839844 L 352.125 80.804688 C 351.796875 80.734375 351.546875 80.597656 351.394531 80.40625 C 351.238281 80.207031 351.164062 79.953125 351.164062 79.648438 C 351.164062 79.1875 351.355469 78.828125 351.738281 78.5625 C 352.105469 78.292969 352.585938 78.167969 353.203125 78.167969 L 355.316406 78.167969 Z M 353.855469 81.277344 L 353.433594 81.277344 C 353.230469 81.277344 353.074219 81.308594 352.96875 81.382812 C 352.847656 81.472656 352.777344 81.609375 352.777344 81.78125 C 352.777344 82.042969 353 82.175781 353.433594 82.175781 L 353.855469 82.175781 Z M 353.855469 80.300781 L 353.855469 79.214844 L 353.355469 79.214844 C 352.894531 79.214844 352.664062 79.394531 352.664062 79.753906 C 352.664062 79.917969 352.730469 80.054688 352.855469 80.152344 C 352.992188 80.246094 353.164062 80.300781 353.394531 80.300781 Z M 353.855469 80.300781 "/>
<path style=" stroke:none;fill-rule:nonzero;fill:rgb(36.078431%,88.235294%,90.196078%);fill-opacity:1;" d="M 357.917969 74.652344 L 359.070312 73.570312 L 361.648438 78.304688 L 360.457031 79.421875 L 355.378906 77.039062 L 356.53125 75.957031 L 358.992188 77.257812 C 359.503906 77.597656 359.859375 77.835938 360.070312 77.980469 C 359.964844 77.835938 359.839844 77.652344 359.6875 77.433594 C 359.53125 77.21875 359.398438 77.0625 359.300781 76.96875 Z M 357.917969 74.652344 "/>
<path style=" stroke:none;fill-rule:nonzero;fill:rgb(54.901961%,32.156863%,100%);fill-opacity:1;" d="M 346.140625 80.710938 L 344.988281 79.625 L 345.640625 77.566406 L 345.175781 77.421875 L 343.910156 78.617188 L 342.910156 77.675781 L 346.714844 74.097656 L 347.71875 75.039062 L 346.0625 76.59375 C 346.234375 76.574219 346.523438 76.519531 346.910156 76.449219 L 348.832031 76.082031 L 349.945312 77.132812 L 347.023438 77.636719 Z M 346.140625 80.710938 "/>
<path style=" stroke:none;fill-rule:nonzero;fill:rgb(100%,100%,100%);fill-opacity:1;" d="M 415.972656 55.726562 C 407.226562 55.726562 400.121094 62.394531 400.121094 70.613281 C 400.121094 78.847656 407.226562 85.515625 415.972656 85.515625 C 424.734375 85.515625 431.828125 78.847656 431.828125 70.613281 C 431.828125 62.394531 424.734375 55.726562 415.972656 55.726562 Z M 415.972656 55.726562 "/>
<path style=" stroke:none;fill-rule:nonzero;fill:rgb(32.156863%,44.313725%,100%);fill-opacity:1;" d="M 408.527344 69.558594 L 407.527344 69.8125 L 407.527344 71.441406 L 408.527344 71.691406 L 408.527344 73.210938 L 403.144531 71.550781 L 403.144531 69.742188 L 408.527344 68.082031 Z M 406.335938 70.097656 L 405.449219 70.316406 C 405.246094 70.367188 404.988281 70.425781 404.683594 70.5 C 404.375 70.574219 404.164062 70.625 404.027344 70.644531 C 404.132812 70.667969 404.335938 70.714844 404.644531 70.789062 C 404.929688 70.84375 405.488281 70.964844 406.335938 71.183594 Z M 406.335938 70.097656 "/>
<path style=" stroke:none;fill-rule:nonzero;fill:rgb(100%,56.862745%,30.196078%);fill-opacity:1;" d="M 411.621094 64.828125 L 410.625 65.765625 L 407.660156 62.980469 L 406.738281 63.847656 L 405.890625 63.054688 L 408.738281 60.378906 L 409.582031 61.175781 L 408.660156 62.042969 Z M 411.621094 64.828125 "/>
<path style=" stroke:none;fill-rule:nonzero;fill:rgb(100%,40%,76.862745%);fill-opacity:1;" d="M 416.113281 59.898438 L 418.457031 59.898438 L 418.457031 62.605469 C 417.816406 62.824219 417.121094 62.929688 416.382812 62.929688 C 415.535156 62.929688 414.882812 62.703125 414.421875 62.246094 C 413.976562 61.792969 413.765625 61.152344 413.765625 60.332031 C 413.765625 59.515625 414.007812 58.875 414.496094 58.414062 C 415.007812 57.960938 415.699219 57.726562 416.574219 57.726562 C 416.929688 57.726562 417.246094 57.765625 417.535156 57.839844 C 417.84375 57.890625 418.113281 57.960938 418.34375 58.054688 L 417.882812 59.136719 C 417.496094 58.949219 417.074219 58.847656 416.613281 58.847656 C 416.167969 58.847656 415.84375 58.980469 415.613281 59.246094 C 415.382812 59.515625 415.265625 59.886719 415.265625 60.363281 C 415.265625 60.828125 415.363281 61.1875 415.574219 61.449219 C 415.777344 61.691406 416.085938 61.8125 416.496094 61.8125 C 416.699219 61.8125 416.890625 61.792969 417.074219 61.742188 L 417.074219 60.941406 L 416.113281 60.941406 Z M 416.113281 59.898438 "/>
<path style=" stroke:none;fill-rule:nonzero;fill:rgb(49.411765%,85.098039%,34.117647%);fill-opacity:1;" d="M 424.664062 62.808594 C 424.433594 62.59375 424.144531 62.519531 423.820312 62.59375 C 423.511719 62.652344 423.175781 62.839844 422.820312 63.167969 C 422.097656 63.835938 422.019531 64.445312 422.589844 64.980469 C 422.742188 65.125 422.90625 65.238281 423.089844 65.339844 C 423.289062 65.457031 423.511719 65.554688 423.742188 65.628906 L 422.859375 66.460938 C 422.414062 66.289062 421.992188 66.011719 421.589844 65.628906 C 421.019531 65.097656 420.75 64.527344 420.78125 63.929688 C 420.800781 63.332031 421.125 62.734375 421.742188 62.160156 C 422.125 61.796875 422.53125 61.542969 422.972656 61.398438 C 423.433594 61.238281 423.878906 61.210938 424.320312 61.328125 C 424.75 61.457031 425.164062 61.691406 425.550781 62.054688 C 425.953125 62.441406 426.261719 62.898438 426.472656 63.425781 L 425.355469 63.894531 C 425.28125 63.679688 425.183594 63.488281 425.085938 63.316406 C 424.980469 63.15625 424.839844 62.980469 424.664062 62.808594 Z M 424.664062 62.808594 "/>
<path style=" stroke:none;fill-rule:nonzero;fill:rgb(100%,8.627451%,8.627451%);fill-opacity:1;" d="M 423.621094 73.042969 L 423.621094 71.269531 L 427.429688 69.425781 L 427.429688 69.394531 C 426.8125 69.4375 426.351562 69.464844 426.046875 69.464844 L 423.621094 69.464844 L 423.621094 68.234375 L 429.003906 68.234375 L 429.003906 70.042969 L 425.273438 71.847656 L 425.273438 71.886719 C 425.8125 71.855469 426.246094 71.847656 426.582031 71.847656 L 429.003906 71.847656 L 429.003906 73.042969 Z M 423.621094 73.042969 "/>
<path style=" stroke:none;fill-rule:nonzero;fill:rgb(100%,74.117647%,34.901961%);fill-opacity:1;" d="M 418.914062 83.226562 L 417.03125 83.226562 C 416.320312 83.226562 415.78125 83.113281 415.417969 82.898438 C 415.058594 82.699219 414.878906 82.394531 414.878906 81.960938 C 414.878906 81.671875 414.953125 81.425781 415.109375 81.238281 C 415.261719 81.039062 415.472656 80.910156 415.722656 80.839844 L 415.722656 80.804688 C 415.394531 80.734375 415.148438 80.597656 414.992188 80.40625 C 414.839844 80.207031 414.761719 79.953125 414.761719 79.648438 C 414.761719 79.1875 414.953125 78.828125 415.339844 78.5625 C 415.703125 78.292969 416.183594 78.167969 416.800781 78.167969 L 418.914062 78.167969 Z M 417.453125 81.277344 L 417.03125 81.277344 C 416.828125 81.277344 416.675781 81.308594 416.570312 81.382812 C 416.445312 81.472656 416.378906 81.609375 416.378906 81.78125 C 416.378906 82.042969 416.597656 82.175781 417.03125 82.175781 L 417.453125 82.175781 Z M 417.453125 80.300781 L 417.453125 79.214844 L 416.953125 79.214844 C 416.492188 79.214844 416.261719 79.394531 416.261719 79.753906 C 416.261719 79.917969 416.328125 80.054688 416.453125 80.152344 C 416.589844 80.246094 416.761719 80.300781 416.992188 80.300781 Z M 417.453125 80.300781 "/>
<path style=" stroke:none;fill-rule:nonzero;fill:rgb(36.078431%,88.235294%,90.196078%);fill-opacity:1;" d="M 421.523438 74.652344 L 422.675781 73.570312 L 425.25 78.304688 L 424.058594 79.421875 L 418.980469 77.039062 L 420.136719 75.957031 L 422.597656 77.257812 C 423.105469 77.597656 423.464844 77.835938 423.675781 77.980469 C 423.570312 77.835938 423.445312 77.652344 423.289062 77.433594 C 423.136719 77.21875 423 77.0625 422.90625 76.96875 Z M 421.523438 74.652344 "/>
<path style=" stroke:none;fill-rule:nonzero;fill:rgb(54.901961%,32.156863%,100%);fill-opacity:1;" d="M 409.738281 80.710938 L 408.585938 79.625 L 409.238281 77.566406 L 408.777344 77.421875 L 407.507812 78.617188 L 406.507812 77.675781 L 410.316406 74.097656 L 411.316406 75.039062 L 409.664062 76.59375 C 409.835938 76.574219 410.121094 76.519531 410.507812 76.449219 L 412.429688 76.082031 L 413.546875 77.132812 L 410.625 77.636719 Z M 409.738281 80.710938 "/>
</g>
</svg>
