<svg xmlns="http://www.w3.org/2000/svg" xmlns:xlink="http://www.w3.org/1999/xlink" width="419.25" viewBox="0 0 419.25 297.75" height="297.75" version="1.0"><defs><g id="a"><path d="M 19.765625 -10.546875 C 19.765625 -7.140625 18.796875 -4.53125 16.859375 -2.71875 C 14.921875 -0.90625 12.125 0 8.46875 0 L 2.609375 0 L 2.609375 -20.6875 L 9.09375 -20.6875 C 12.476562 -20.6875 15.101562 -19.796875 16.96875 -18.015625 C 18.832031 -16.234375 19.765625 -13.742188 19.765625 -10.546875 Z M 15.21875 -10.4375 C 15.21875 -14.875 13.253906 -17.09375 9.328125 -17.09375 L 6.984375 -17.09375 L 6.984375 -3.625 L 8.875 -3.625 C 13.101562 -3.625 15.21875 -5.894531 15.21875 -10.4375 Z M 15.21875 -10.4375"/></g><g id="b"><path d="M 8.8125 -13.046875 C 7.894531 -13.046875 7.175781 -12.753906 6.65625 -12.171875 C 6.144531 -11.597656 5.851562 -10.773438 5.78125 -9.703125 L 11.828125 -9.703125 C 11.804688 -10.773438 11.523438 -11.597656 10.984375 -12.171875 C 10.453125 -12.753906 9.726562 -13.046875 8.8125 -13.046875 Z M 9.421875 0.28125 C 6.878906 0.28125 4.890625 -0.421875 3.453125 -1.828125 C 2.015625 -3.234375 1.296875 -5.222656 1.296875 -7.796875 C 1.296875 -10.453125 1.957031 -12.503906 3.28125 -13.953125 C 4.613281 -15.398438 6.445312 -16.125 8.78125 -16.125 C 11.019531 -16.125 12.757812 -15.484375 14 -14.203125 C 15.25 -12.929688 15.875 -11.175781 15.875 -8.9375 L 15.875 -6.828125 L 5.671875 -6.828125 C 5.722656 -5.609375 6.085938 -4.648438 6.765625 -3.953125 C 7.441406 -3.265625 8.394531 -2.921875 9.625 -2.921875 C 10.570312 -2.921875 11.46875 -3.019531 12.3125 -3.21875 C 13.164062 -3.425781 14.054688 -3.742188 14.984375 -4.171875 L 14.984375 -0.828125 C 14.234375 -0.453125 13.425781 -0.175781 12.5625 0 C 11.707031 0.1875 10.660156 0.28125 9.421875 0.28125 Z M 9.421875 0.28125"/></g><g id="c"><path d="M 16.03125 -15.828125 L 16.03125 -13.625 L 13.5625 -12.984375 C 14.007812 -12.285156 14.234375 -11.492188 14.234375 -10.609375 C 14.234375 -8.910156 13.640625 -7.585938 12.453125 -6.640625 C 11.273438 -5.691406 9.632812 -5.21875 7.53125 -5.21875 L 6.75 -5.265625 L 6.109375 -5.328125 C 5.671875 -4.992188 5.453125 -4.617188 5.453125 -4.203125 C 5.453125 -3.578125 6.242188 -3.265625 7.828125 -3.265625 L 10.515625 -3.265625 C 12.253906 -3.265625 13.578125 -2.890625 14.484375 -2.140625 C 15.390625 -1.398438 15.84375 -0.3125 15.84375 1.125 C 15.84375 2.976562 15.070312 4.414062 13.53125 5.4375 C 11.988281 6.457031 9.773438 6.96875 6.890625 6.96875 C 4.679688 6.96875 2.992188 6.582031 1.828125 5.8125 C 0.660156 5.039062 0.078125 3.960938 0.078125 2.578125 C 0.078125 1.617188 0.375 0.816406 0.96875 0.171875 C 1.570312 -0.460938 2.445312 -0.914062 3.59375 -1.1875 C 3.144531 -1.375 2.753906 -1.679688 2.421875 -2.109375 C 2.097656 -2.546875 1.9375 -3.003906 1.9375 -3.484375 C 1.9375 -4.085938 2.109375 -4.585938 2.453125 -4.984375 C 2.804688 -5.390625 3.316406 -5.785156 3.984375 -6.171875 C 3.148438 -6.523438 2.488281 -7.097656 2 -7.890625 C 1.519531 -8.679688 1.28125 -9.617188 1.28125 -10.703125 C 1.28125 -12.429688 1.835938 -13.765625 2.953125 -14.703125 C 4.078125 -15.648438 5.679688 -16.125 7.765625 -16.125 C 8.210938 -16.125 8.738281 -16.082031 9.34375 -16 C 9.957031 -15.914062 10.347656 -15.859375 10.515625 -15.828125 Z M 3.828125 2.234375 C 3.828125 2.828125 4.109375 3.289062 4.671875 3.625 C 5.242188 3.96875 6.046875 4.140625 7.078125 4.140625 C 8.617188 4.140625 9.828125 3.925781 10.703125 3.5 C 11.585938 3.082031 12.03125 2.503906 12.03125 1.765625 C 12.03125 1.171875 11.769531 0.757812 11.25 0.53125 C 10.726562 0.3125 9.925781 0.203125 8.84375 0.203125 L 6.609375 0.203125 C 5.816406 0.203125 5.15625 0.382812 4.625 0.75 C 4.09375 1.125 3.828125 1.617188 3.828125 2.234375 Z M 5.390625 -10.640625 C 5.390625 -9.785156 5.582031 -9.109375 5.96875 -8.609375 C 6.363281 -8.109375 6.960938 -7.859375 7.765625 -7.859375 C 8.578125 -7.859375 9.171875 -8.109375 9.546875 -8.609375 C 9.929688 -9.109375 10.125 -9.785156 10.125 -10.640625 C 10.125 -12.546875 9.335938 -13.5 7.765625 -13.5 C 6.179688 -13.5 5.390625 -12.546875 5.390625 -10.640625 Z M 5.390625 -10.640625"/></g><g id="d"><path d="M 16.875 0 L 12.546875 0 L 12.546875 -9.234375 C 12.546875 -10.378906 12.34375 -11.238281 11.9375 -11.8125 C 11.539062 -12.382812 10.894531 -12.671875 10 -12.671875 C 8.789062 -12.671875 7.914062 -12.265625 7.375 -11.453125 C 6.84375 -10.648438 6.578125 -9.3125 6.578125 -7.4375 L 6.578125 0 L 2.265625 0 L 2.265625 -15.828125 L 5.5625 -15.828125 L 6.140625 -13.796875 L 6.375 -13.796875 C 6.863281 -14.554688 7.53125 -15.132812 8.375 -15.53125 C 9.21875 -15.925781 10.175781 -16.125 11.25 -16.125 C 13.09375 -16.125 14.488281 -15.625 15.4375 -14.625 C 16.394531 -13.632812 16.875 -12.195312 16.875 -10.3125 Z M 16.875 0"/></g><g id="e"><path d="M 11.09375 -16.125 C 11.675781 -16.125 12.160156 -16.082031 12.546875 -16 L 12.234375 -11.9375 C 11.878906 -12.039062 11.453125 -12.09375 10.953125 -12.09375 C 9.578125 -12.09375 8.503906 -11.738281 7.734375 -11.03125 C 6.960938 -10.320312 6.578125 -9.328125 6.578125 -8.046875 L 6.578125 0 L 2.265625 0 L 2.265625 -15.828125 L 5.53125 -15.828125 L 6.171875 -13.15625 L 6.375 -13.15625 C 6.875 -14.050781 7.539062 -14.769531 8.375 -15.3125 C 9.207031 -15.851562 10.113281 -16.125 11.09375 -16.125 Z M 11.09375 -16.125"/></g><g id="f"><path d="M 12.3125 0 L 11.484375 -2.15625 L 11.359375 -2.15625 C 10.640625 -1.238281 9.894531 -0.601562 9.125 -0.25 C 8.351562 0.101562 7.347656 0.28125 6.109375 0.28125 C 4.585938 0.28125 3.390625 -0.148438 2.515625 -1.015625 C 1.648438 -1.890625 1.21875 -3.128906 1.21875 -4.734375 C 1.21875 -6.410156 1.800781 -7.644531 2.96875 -8.4375 C 4.144531 -9.238281 5.921875 -9.679688 8.296875 -9.765625 L 11.03125 -9.84375 L 11.03125 -10.546875 C 11.03125 -12.148438 10.210938 -12.953125 8.578125 -12.953125 C 7.316406 -12.953125 5.832031 -12.566406 4.125 -11.796875 L 2.6875 -14.71875 C 4.507812 -15.664062 6.53125 -16.140625 8.75 -16.140625 C 10.875 -16.140625 12.5 -15.675781 13.625 -14.75 C 14.757812 -13.832031 15.328125 -12.429688 15.328125 -10.546875 L 15.328125 0 Z M 11.03125 -7.328125 L 9.375 -7.28125 C 8.113281 -7.238281 7.175781 -7.007812 6.5625 -6.59375 C 5.945312 -6.175781 5.640625 -5.546875 5.640625 -4.703125 C 5.640625 -3.484375 6.335938 -2.875 7.734375 -2.875 C 8.734375 -2.875 9.53125 -3.160156 10.125 -3.734375 C 10.726562 -4.304688 11.03125 -5.070312 11.03125 -6.03125 Z M 11.03125 -7.328125"/></g><g id="g"><path d="M 8.9375 -3.15625 C 9.6875 -3.15625 10.585938 -3.320312 11.640625 -3.65625 L 11.640625 -0.4375 C 10.566406 0.0390625 9.25 0.28125 7.6875 0.28125 C 5.957031 0.28125 4.695312 -0.148438 3.90625 -1.015625 C 3.125 -1.890625 2.734375 -3.203125 2.734375 -4.953125 L 2.734375 -12.578125 L 0.671875 -12.578125 L 0.671875 -14.40625 L 3.046875 -15.84375 L 4.28125 -19.1875 L 7.046875 -19.1875 L 7.046875 -15.828125 L 11.484375 -15.828125 L 11.484375 -12.578125 L 7.046875 -12.578125 L 7.046875 -4.953125 C 7.046875 -4.335938 7.21875 -3.882812 7.5625 -3.59375 C 7.90625 -3.300781 8.363281 -3.15625 8.9375 -3.15625 Z M 8.9375 -3.15625"/></g><g id="i"><path d="M 11.390625 -17.34375 C 9.742188 -17.34375 8.46875 -16.71875 7.5625 -15.46875 C 6.65625 -14.226562 6.203125 -12.5 6.203125 -10.28125 C 6.203125 -5.675781 7.929688 -3.375 11.390625 -3.375 C 12.847656 -3.375 14.609375 -3.734375 16.671875 -4.453125 L 16.671875 -0.78125 C 14.972656 -0.0703125 13.078125 0.28125 10.984375 0.28125 C 7.972656 0.28125 5.671875 -0.628906 4.078125 -2.453125 C 2.484375 -4.273438 1.6875 -6.894531 1.6875 -10.3125 C 1.6875 -12.46875 2.078125 -14.351562 2.859375 -15.96875 C 3.640625 -17.582031 4.765625 -18.820312 6.234375 -19.6875 C 7.703125 -20.550781 9.421875 -20.984375 11.390625 -20.984375 C 13.398438 -20.984375 15.421875 -20.5 17.453125 -19.53125 L 16.03125 -15.96875 C 15.257812 -16.332031 14.484375 -16.648438 13.703125 -16.921875 C 12.921875 -17.203125 12.148438 -17.34375 11.390625 -17.34375 Z M 11.390625 -17.34375"/></g><g id="j"><path d="M 5.703125 -7.9375 C 5.703125 -6.375 5.957031 -5.191406 6.46875 -4.390625 C 6.988281 -3.585938 7.828125 -3.1875 8.984375 -3.1875 C 10.140625 -3.1875 10.96875 -3.582031 11.46875 -4.375 C 11.976562 -5.175781 12.234375 -6.363281 12.234375 -7.9375 C 12.234375 -9.5 11.976562 -10.671875 11.46875 -11.453125 C 10.957031 -12.242188 10.117188 -12.640625 8.953125 -12.640625 C 7.804688 -12.640625 6.976562 -12.25 6.46875 -11.46875 C 5.957031 -10.6875 5.703125 -9.507812 5.703125 -7.9375 Z M 16.640625 -7.9375 C 16.640625 -5.363281 15.957031 -3.347656 14.59375 -1.890625 C 13.238281 -0.441406 11.351562 0.28125 8.9375 0.28125 C 7.414062 0.28125 6.070312 -0.0507812 4.90625 -0.71875 C 3.75 -1.382812 2.859375 -2.335938 2.234375 -3.578125 C 1.609375 -4.828125 1.296875 -6.28125 1.296875 -7.9375 C 1.296875 -10.519531 1.96875 -12.53125 3.3125 -13.96875 C 4.664062 -15.40625 6.566406 -16.125 9.015625 -16.125 C 10.535156 -16.125 11.875 -15.789062 13.03125 -15.125 C 14.195312 -14.46875 15.085938 -13.519531 15.703125 -12.28125 C 16.328125 -11.050781 16.640625 -9.601562 16.640625 -7.9375 Z M 16.640625 -7.9375"/></g><g id="k"><path d="M 7.28125 0.28125 C 5.414062 0.28125 3.953125 -0.4375 2.890625 -1.875 C 1.828125 -3.320312 1.296875 -5.328125 1.296875 -7.890625 C 1.296875 -10.484375 1.835938 -12.503906 2.921875 -13.953125 C 4.003906 -15.398438 5.492188 -16.125 7.390625 -16.125 C 9.378906 -16.125 10.894531 -15.347656 11.9375 -13.796875 L 12.09375 -13.796875 C 11.875 -14.972656 11.765625 -16.023438 11.765625 -16.953125 L 11.765625 -22.015625 L 16.09375 -22.015625 L 16.09375 0 L 12.78125 0 L 11.9375 -2.046875 L 11.765625 -2.046875 C 10.773438 -0.492188 9.28125 0.28125 7.28125 0.28125 Z M 8.78125 -3.15625 C 9.882812 -3.15625 10.691406 -3.472656 11.203125 -4.109375 C 11.722656 -4.753906 12.007812 -5.847656 12.0625 -7.390625 L 12.0625 -7.859375 C 12.0625 -9.554688 11.796875 -10.769531 11.265625 -11.5 C 10.742188 -12.238281 9.894531 -12.609375 8.71875 -12.609375 C 7.757812 -12.609375 7.007812 -12.195312 6.46875 -11.375 C 5.9375 -10.5625 5.671875 -9.378906 5.671875 -7.828125 C 5.671875 -6.265625 5.9375 -5.09375 6.46875 -4.3125 C 7.007812 -3.539062 7.78125 -3.15625 8.78125 -3.15625 Z M 8.78125 -3.15625"/></g><g id="l"><path d="M 13.296875 -4.703125 C 13.296875 -3.078125 12.734375 -1.835938 11.609375 -0.984375 C 10.484375 -0.140625 8.796875 0.28125 6.546875 0.28125 C 5.398438 0.28125 4.421875 0.203125 3.609375 0.046875 C 2.796875 -0.109375 2.035156 -0.335938 1.328125 -0.640625 L 1.328125 -4.203125 C 2.128906 -3.828125 3.03125 -3.507812 4.03125 -3.25 C 5.039062 -3 5.925781 -2.875 6.6875 -2.875 C 8.257812 -2.875 9.046875 -3.328125 9.046875 -4.234375 C 9.046875 -4.566406 8.941406 -4.835938 8.734375 -5.046875 C 8.523438 -5.265625 8.164062 -5.507812 7.65625 -5.78125 C 7.144531 -6.050781 6.46875 -6.363281 5.625 -6.71875 C 4.40625 -7.226562 3.507812 -7.695312 2.9375 -8.125 C 2.363281 -8.5625 1.945312 -9.0625 1.6875 -9.625 C 1.425781 -10.1875 1.296875 -10.878906 1.296875 -11.703125 C 1.296875 -13.109375 1.84375 -14.195312 2.9375 -14.96875 C 4.03125 -15.738281 5.578125 -16.125 7.578125 -16.125 C 9.484375 -16.125 11.335938 -15.707031 13.140625 -14.875 L 11.828125 -11.765625 C 11.035156 -12.097656 10.296875 -12.375 9.609375 -12.59375 C 8.921875 -12.8125 8.21875 -12.921875 7.5 -12.921875 C 6.226562 -12.921875 5.59375 -12.578125 5.59375 -11.890625 C 5.59375 -11.503906 5.796875 -11.164062 6.203125 -10.875 C 6.617188 -10.59375 7.519531 -10.175781 8.90625 -9.625 C 10.132812 -9.125 11.035156 -8.65625 11.609375 -8.21875 C 12.191406 -7.789062 12.617188 -7.289062 12.890625 -6.71875 C 13.160156 -6.15625 13.296875 -5.484375 13.296875 -4.703125 Z M 13.296875 -4.703125"/></g><g id="m"><path d="M 2.078125 -19.90625 C 2.078125 -21.3125 2.863281 -22.015625 4.4375 -22.015625 C 6 -22.015625 6.78125 -21.3125 6.78125 -19.90625 C 6.78125 -19.238281 6.582031 -18.71875 6.1875 -18.34375 C 5.800781 -17.976562 5.21875 -17.796875 4.4375 -17.796875 C 2.863281 -17.796875 2.078125 -18.5 2.078125 -19.90625 Z M 6.578125 0 L 2.265625 0 L 2.265625 -15.828125 L 6.578125 -15.828125 Z M 6.578125 0"/></g><g id="n"><path d="M 0 -2.234375 L -0.578125 -2.078125 L -0.578125 -1.078125 L 0 -0.921875 L 0 0 L -3.109375 -1.015625 L -3.109375 -2.125 L 0 -3.15625 Z M -1.265625 -1.90625 L -1.78125 -1.78125 C -1.894531 -1.75 -2.039062 -1.707031 -2.21875 -1.65625 C -2.394531 -1.613281 -2.523438 -1.585938 -2.609375 -1.578125 C -2.535156 -1.566406 -2.414062 -1.539062 -2.25 -1.5 C -2.082031 -1.457031 -1.753906 -1.375 -1.265625 -1.25 Z M -1.265625 -1.90625"/></g><g id="o"><path d="M 1.203125 -1.203125 L 0.609375 -0.609375 L -1.109375 -2.328125 L -1.640625 -1.796875 L -2.109375 -2.265625 L -0.453125 -3.921875 L 0.015625 -3.453125 L -0.515625 -2.921875 Z M 1.203125 -1.203125"/></g><g id="p"><path d="M 1.578125 -1.8125 L 2.921875 -1.8125 L 2.921875 -0.140625 C 2.554688 -0.015625 2.15625 0.046875 1.71875 0.046875 C 1.238281 0.046875 0.867188 -0.0859375 0.609375 -0.359375 C 0.347656 -0.640625 0.21875 -1.039062 0.21875 -1.5625 C 0.21875 -2.0625 0.359375 -2.445312 0.640625 -2.71875 C 0.929688 -3 1.332031 -3.140625 1.84375 -3.140625 C 2.039062 -3.140625 2.222656 -3.117188 2.390625 -3.078125 C 2.566406 -3.046875 2.722656 -3.003906 2.859375 -2.953125 L 2.59375 -2.296875 C 2.363281 -2.398438 2.117188 -2.453125 1.859375 -2.453125 C 1.609375 -2.453125 1.414062 -2.375 1.28125 -2.21875 C 1.15625 -2.0625 1.09375 -1.832031 1.09375 -1.53125 C 1.09375 -1.25 1.148438 -1.03125 1.265625 -0.875 C 1.390625 -0.71875 1.566406 -0.640625 1.796875 -0.640625 C 1.921875 -0.640625 2.035156 -0.65625 2.140625 -0.6875 L 2.140625 -1.171875 L 1.578125 -1.171875 Z M 1.578125 -1.8125"/></g><g id="q"><path d="M 2.953125 -0.515625 C 2.804688 -0.660156 2.632812 -0.710938 2.4375 -0.671875 C 2.25 -0.640625 2.050781 -0.519531 1.84375 -0.3125 C 1.425781 0.101562 1.378906 0.472656 1.703125 0.796875 C 1.796875 0.890625 1.898438 0.96875 2.015625 1.03125 C 2.140625 1.101562 2.265625 1.160156 2.390625 1.203125 L 1.890625 1.703125 C 1.628906 1.609375 1.382812 1.445312 1.15625 1.21875 C 0.820312 0.882812 0.660156 0.53125 0.671875 0.15625 C 0.691406 -0.207031 0.882812 -0.570312 1.25 -0.9375 C 1.46875 -1.15625 1.703125 -1.304688 1.953125 -1.390625 C 2.210938 -1.484375 2.46875 -1.492188 2.71875 -1.421875 C 2.976562 -1.359375 3.21875 -1.21875 3.4375 -1 C 3.675781 -0.757812 3.851562 -0.476562 3.96875 -0.15625 L 3.328125 0.109375 C 3.273438 -0.00390625 3.21875 -0.113281 3.15625 -0.21875 C 3.101562 -0.332031 3.035156 -0.429688 2.953125 -0.515625 Z M 2.953125 -0.515625"/></g><g id="r"><path d="M 0 3.28125 L 0 2.1875 L 2.1875 1.0625 L 2.1875 1.03125 C 1.84375 1.0625 1.578125 1.078125 1.390625 1.078125 L 0 1.078125 L 0 0.328125 L 3.09375 0.328125 L 3.09375 1.421875 L 0.953125 2.5625 L 0.953125 2.578125 C 1.265625 2.554688 1.515625 2.546875 1.703125 2.546875 L 3.09375 2.546875 L 3.09375 3.28125 Z M 0 3.28125"/></g><g id="s"><path d="M -0.328125 3.09375 L -1.421875 3.09375 C -1.835938 3.09375 -2.144531 3.03125 -2.34375 2.90625 C -2.550781 2.78125 -2.65625 2.585938 -2.65625 2.328125 C -2.65625 2.148438 -2.609375 2 -2.515625 1.875 C -2.429688 1.757812 -2.316406 1.679688 -2.171875 1.640625 L -2.171875 1.625 C -2.367188 1.570312 -2.507812 1.484375 -2.59375 1.359375 C -2.675781 1.242188 -2.71875 1.09375 -2.71875 0.90625 C -2.71875 0.625 -2.613281 0.398438 -2.40625 0.234375 C -2.195312 0.078125 -1.910156 0 -1.546875 0 L -0.328125 0 Z M -1.171875 1.90625 L -1.421875 1.90625 C -1.546875 1.90625 -1.640625 1.929688 -1.703125 1.984375 C -1.765625 2.035156 -1.796875 2.109375 -1.796875 2.203125 C -1.796875 2.378906 -1.664062 2.46875 -1.40625 2.46875 L -1.171875 2.46875 Z M -1.171875 1.296875 L -1.171875 0.640625 L -1.46875 0.640625 C -1.726562 0.640625 -1.859375 0.753906 -1.859375 0.984375 C -1.859375 1.078125 -1.820312 1.148438 -1.75 1.203125 C -1.6875 1.265625 -1.585938 1.296875 -1.453125 1.296875 Z M -1.171875 1.296875"/></g><g id="t"><path d="M -0.71875 -3.65625 L -0.0625 -4.3125 L 1.421875 -1.421875 L 0.71875 -0.71875 L -2.1875 -2.1875 L -1.53125 -2.84375 L -0.109375 -2.046875 C 0.203125 -1.859375 0.410156 -1.722656 0.515625 -1.640625 C 0.441406 -1.710938 0.363281 -1.8125 0.28125 -1.9375 C 0.195312 -2.0625 0.128906 -2.160156 0.078125 -2.234375 Z M -0.71875 -3.65625"/></g><g id="u"><path d="M 2.109375 2.109375 L 1.4375 1.4375 L 1.84375 0.15625 L 1.5625 0.09375 L 0.828125 0.828125 L 0.234375 0.234375 L 2.421875 -1.953125 L 3.015625 -1.359375 L 2.0625 -0.40625 C 2.15625 -0.4375 2.316406 -0.472656 2.546875 -0.515625 L 3.65625 -0.71875 L 4.3125 -0.0625 L 2.640625 0.203125 Z M 2.109375 2.109375"/></g></defs><g><use x="8.214" y="142.669" xmlns:xlink="http://www.w3.org/1999/xlink" xlink:href="#a" xlink:type="simple" xlink:actuate="onLoad" xlink:show="embed"/></g><g><use x="29.662" y="142.669" xmlns:xlink="http://www.w3.org/1999/xlink" xlink:href="#b" xlink:type="simple" xlink:actuate="onLoad" xlink:show="embed"/></g><g><use x="46.781" y="142.669" xmlns:xlink="http://www.w3.org/1999/xlink" xlink:href="#c" xlink:type="simple" xlink:actuate="onLoad" xlink:show="embed"/></g><g><use x="63.15" y="142.669" xmlns:xlink="http://www.w3.org/1999/xlink" xlink:href="#b" xlink:type="simple" xlink:actuate="onLoad" xlink:show="embed"/></g><g><use x="80.269" y="142.669" xmlns:xlink="http://www.w3.org/1999/xlink" xlink:href="#d" xlink:type="simple" xlink:actuate="onLoad" xlink:show="embed"/></g><g><use x="99.312" y="142.669" xmlns:xlink="http://www.w3.org/1999/xlink" xlink:href="#b" xlink:type="simple" xlink:actuate="onLoad" xlink:show="embed"/></g><g><use x="116.431" y="142.669" xmlns:xlink="http://www.w3.org/1999/xlink" xlink:href="#e" xlink:type="simple" xlink:actuate="onLoad" xlink:show="embed"/></g><g><use x="129.588" y="142.669" xmlns:xlink="http://www.w3.org/1999/xlink" xlink:href="#f" xlink:type="simple" xlink:actuate="onLoad" xlink:show="embed"/></g><g><use x="147.089" y="142.669" xmlns:xlink="http://www.w3.org/1999/xlink" xlink:href="#g" xlink:type="simple" xlink:actuate="onLoad" xlink:show="embed"/></g><g><use x="159.666" y="142.669" xmlns:xlink="http://www.w3.org/1999/xlink" xlink:href="#b" xlink:type="simple" xlink:actuate="onLoad" xlink:show="embed"/></g><g><use x="176.785" y="142.669" xmlns:xlink="http://www.w3.org/1999/xlink" xlink:href="#h" xlink:type="simple" xlink:actuate="onLoad" xlink:show="embed"/></g><g><use x="184.312" y="142.669" xmlns:xlink="http://www.w3.org/1999/xlink" xlink:href="#i" xlink:type="simple" xlink:actuate="onLoad" xlink:show="embed"/></g><g><use x="202.775" y="142.669" xmlns:xlink="http://www.w3.org/1999/xlink" xlink:href="#j" xlink:type="simple" xlink:actuate="onLoad" xlink:show="embed"/></g><g><use x="220.714" y="142.669" xmlns:xlink="http://www.w3.org/1999/xlink" xlink:href="#k" xlink:type="simple" xlink:actuate="onLoad" xlink:show="embed"/></g><g><use x="239.05" y="142.669" xmlns:xlink="http://www.w3.org/1999/xlink" xlink:href="#j" xlink:type="simple" xlink:actuate="onLoad" xlink:show="embed"/></g><g><use x="256.989" y="142.669" xmlns:xlink="http://www.w3.org/1999/xlink" xlink:href="#d" xlink:type="simple" xlink:actuate="onLoad" xlink:show="embed"/></g><g><use x="276.032" y="142.669" xmlns:xlink="http://www.w3.org/1999/xlink" xlink:href="#h" xlink:type="simple" xlink:actuate="onLoad" xlink:show="embed"/></g><g><use x="283.559" y="142.669" xmlns:xlink="http://www.w3.org/1999/xlink" xlink:href="#a" xlink:type="simple" xlink:actuate="onLoad" xlink:show="embed"/></g><g><use x="305.007" y="142.669" xmlns:xlink="http://www.w3.org/1999/xlink" xlink:href="#b" xlink:type="simple" xlink:actuate="onLoad" xlink:show="embed"/></g><g><use x="322.126" y="142.669" xmlns:xlink="http://www.w3.org/1999/xlink" xlink:href="#l" xlink:type="simple" xlink:actuate="onLoad" xlink:show="embed"/></g><g><use x="336.528" y="142.669" xmlns:xlink="http://www.w3.org/1999/xlink" xlink:href="#m" xlink:type="simple" xlink:actuate="onLoad" xlink:show="embed"/></g><g><use x="345.371" y="142.669" xmlns:xlink="http://www.w3.org/1999/xlink" xlink:href="#c" xlink:type="simple" xlink:actuate="onLoad" xlink:show="embed"/></g><g><use x="361.74" y="142.669" xmlns:xlink="http://www.w3.org/1999/xlink" xlink:href="#d" xlink:type="simple" xlink:actuate="onLoad" xlink:show="embed"/></g><g><use x="380.783" y="142.669" xmlns:xlink="http://www.w3.org/1999/xlink" xlink:href="#b" xlink:type="simple" xlink:actuate="onLoad" xlink:show="embed"/></g><g><use x="397.902" y="142.669" xmlns:xlink="http://www.w3.org/1999/xlink" xlink:href="#e" xlink:type="simple" xlink:actuate="onLoad" xlink:show="embed"/></g><path fill="#FFF" d="M 211.675781 125.3125 C 206.621094 125.3125 202.523438 129.410156 202.523438 134.464844 C 202.523438 139.519531 206.621094 143.617188 211.675781 143.617188 C 216.730469 143.617188 220.832031 139.519531 220.832031 134.464844 C 220.832031 129.410156 216.730469 125.3125 211.675781 125.3125 Z M 211.675781 125.3125"/><g fill="#5271FF"><use x="207.377" y="136.055" xmlns:xlink="http://www.w3.org/1999/xlink" xlink:href="#n" xlink:type="simple" xlink:actuate="onLoad" xlink:show="embed"/></g><g fill="#FF914D"><use x="207.964" y="132.103" xmlns:xlink="http://www.w3.org/1999/xlink" xlink:href="#o" xlink:type="simple" xlink:actuate="onLoad" xlink:show="embed"/></g><g fill="#FF66C4"><use x="210.181" y="129.695" xmlns:xlink="http://www.w3.org/1999/xlink" xlink:href="#p" xlink:type="simple" xlink:actuate="onLoad" xlink:show="embed"/></g><g fill="#7ED957"><use x="213.763" y="130.198" xmlns:xlink="http://www.w3.org/1999/xlink" xlink:href="#q" xlink:type="simple" xlink:actuate="onLoad" xlink:show="embed"/></g><g fill="#FF1616"><use x="216.095" y="132.665" xmlns:xlink="http://www.w3.org/1999/xlink" xlink:href="#r" xlink:type="simple" xlink:actuate="onLoad" xlink:show="embed"/></g><g fill="#FFBD59"><use x="213.71" y="139.101" xmlns:xlink="http://www.w3.org/1999/xlink" xlink:href="#s" xlink:type="simple" xlink:actuate="onLoad" xlink:show="embed"/></g><g fill="#5CE1E6"><use x="215.613" y="140.608" xmlns:xlink="http://www.w3.org/1999/xlink" xlink:href="#t" xlink:type="simple" xlink:actuate="onLoad" xlink:show="embed"/></g><g fill="#8C52FF"><use x="205.967" y="138.556" xmlns:xlink="http://www.w3.org/1999/xlink" xlink:href="#u" xlink:type="simple" xlink:actuate="onLoad" xlink:show="embed"/></g><path fill="#FFF" d="M 248.40625 125.3125 C 243.351562 125.3125 239.253906 129.410156 239.253906 134.464844 C 239.253906 139.519531 243.351562 143.617188 248.40625 143.617188 C 253.460938 143.617188 257.558594 139.519531 257.558594 134.464844 C 257.558594 129.410156 253.460938 125.3125 248.40625 125.3125 Z M 248.40625 125.3125"/><g fill="#5271FF"><use x="244.105" y="136.055" xmlns:xlink="http://www.w3.org/1999/xlink" xlink:href="#n" xlink:type="simple" xlink:actuate="onLoad" xlink:show="embed"/></g><g fill="#FF914D"><use x="244.692" y="132.103" xmlns:xlink="http://www.w3.org/1999/xlink" xlink:href="#o" xlink:type="simple" xlink:actuate="onLoad" xlink:show="embed"/></g><g fill="#FF66C4"><use x="246.909" y="129.695" xmlns:xlink="http://www.w3.org/1999/xlink" xlink:href="#p" xlink:type="simple" xlink:actuate="onLoad" xlink:show="embed"/></g><g fill="#7ED957"><use x="250.491" y="130.198" xmlns:xlink="http://www.w3.org/1999/xlink" xlink:href="#q" xlink:type="simple" xlink:actuate="onLoad" xlink:show="embed"/></g><g fill="#FF1616"><use x="252.823" y="132.665" xmlns:xlink="http://www.w3.org/1999/xlink" xlink:href="#r" xlink:type="simple" xlink:actuate="onLoad" xlink:show="embed"/></g><g fill="#FFBD59"><use x="250.438" y="139.101" xmlns:xlink="http://www.w3.org/1999/xlink" xlink:href="#s" xlink:type="simple" xlink:actuate="onLoad" xlink:show="embed"/></g><g fill="#5CE1E6"><use x="252.341" y="140.608" xmlns:xlink="http://www.w3.org/1999/xlink" xlink:href="#t" xlink:type="simple" xlink:actuate="onLoad" xlink:show="embed"/></g><g fill="#8C52FF"><use x="242.695" y="138.556" xmlns:xlink="http://www.w3.org/1999/xlink" xlink:href="#u" xlink:type="simple" xlink:actuate="onLoad" xlink:show="embed"/></g></svg>