<?xml version="1.0" encoding="UTF-8"?>
<svg xmlns="http://www.w3.org/2000/svg" xmlns:xlink="http://www.w3.org/1999/xlink" width="650px" height="130px" viewBox="0 0 647 130" version="1.1">
<g id="surface1">
<path style=" stroke:none;fill-rule:nonzero;fill:rgb(0%,0%,0%);fill-opacity:1;" d="M 32.449219 64.257812 C 32.449219 69.441406 30.960938 73.414062 28 76.195312 C 25.027344 78.957031 20.753906 80.328125 15.183594 80.328125 L 6.25 80.328125 L 6.25 48.753906 L 16.179688 48.753906 C 21.324219 48.753906 25.328125 50.128906 28.175781 52.851562 C 31.023438 55.5625 32.449219 59.367188 32.449219 64.257812 Z M 25.472656 64.398438 C 25.472656 57.628906 22.480469 54.242188 16.5 54.242188 L 12.941406 54.242188 L 12.941406 74.804688 L 15.824219 74.804688 C 22.25 74.804688 25.472656 71.339844 25.472656 64.398438 Z M 25.472656 64.398438 "/>
<path style=" stroke:none;fill-rule:nonzero;fill:rgb(0%,0%,0%);fill-opacity:1;" d="M 48.441406 60.40625 C 47.035156 60.40625 45.933594 60.863281 45.128906 61.761719 C 44.347656 62.644531 43.894531 63.890625 43.777344 65.503906 L 53.035156 65.503906 C 52.980469 63.890625 52.542969 62.644531 51.714844 61.761719 C 50.90625 60.863281 49.8125 60.40625 48.441406 60.40625 Z M 49.367188 80.757812 C 45.46875 80.757812 42.433594 79.6875 40.253906 77.550781 C 38.066406 75.410156 36.980469 72.371094 36.980469 68.425781 C 36.980469 64.390625 37.984375 61.261719 40.003906 59.054688 C 42.015625 56.84375 44.808594 55.738281 48.371094 55.738281 C 51.789062 55.738281 54.4375 56.71875 56.34375 58.660156 C 58.238281 60.585938 59.191406 63.277344 59.191406 66.714844 L 59.191406 69.886719 L 43.636719 69.886719 C 43.707031 71.765625 44.25 73.238281 45.273438 74.304688 C 46.3125 75.355469 47.773438 75.875 49.652344 75.875 C 51.09375 75.875 52.464844 75.722656 53.746094 75.410156 C 55.042969 75.109375 56.414062 74.617188 57.839844 73.949219 L 57.839844 79.046875 C 56.671875 79.617188 55.4375 80.042969 54.136719 80.328125 C 52.828125 80.613281 51.234375 80.757812 49.367188 80.757812 Z M 49.367188 80.757812 "/>
<path style=" stroke:none;fill-rule:nonzero;fill:rgb(0%,0%,0%);fill-opacity:1;" d="M 85.527344 56.203125 L 85.527344 59.515625 L 81.753906 60.515625 C 82.441406 61.585938 82.785156 62.796875 82.785156 64.148438 C 82.785156 66.742188 81.871094 68.765625 80.046875 70.207031 C 78.238281 71.632812 75.738281 72.347656 72.535156 72.347656 L 71.359375 72.308594 L 70.398438 72.203125 C 69.707031 72.703125 69.367188 73.273438 69.367188 73.914062 C 69.367188 74.867188 70.578125 75.339844 72.996094 75.339844 L 77.089844 75.339844 C 79.742188 75.339844 81.761719 75.910156 83.144531 77.050781 C 84.539062 78.191406 85.242188 79.855469 85.242188 82.039062 C 85.242188 84.863281 84.070312 87.046875 81.71875 88.597656 C 79.371094 90.164062 75.988281 90.949219 71.574219 90.949219 C 68.203125 90.949219 65.628906 90.351562 63.851562 89.167969 C 62.085938 88 61.214844 86.359375 61.214844 84.25 C 61.214844 82.796875 61.660156 81.585938 62.566406 80.613281 C 63.46875 79.644531 64.792969 78.9375 66.554688 78.511719 C 65.859375 78.226562 65.273438 77.761719 64.773438 77.121094 C 64.277344 76.460938 64.027344 75.757812 64.027344 75.019531 C 64.027344 74.09375 64.285156 73.335938 64.8125 72.738281 C 65.355469 72.125 66.128906 71.519531 67.125 70.921875 C 65.859375 70.378906 64.863281 69.496094 64.132812 68.285156 C 63.394531 67.070312 63.03125 65.648438 63.03125 64.007812 C 63.03125 61.371094 63.886719 59.339844 65.59375 57.914062 C 67.300781 56.46875 69.742188 55.738281 72.925781 55.738281 C 73.585938 55.738281 74.386719 55.800781 75.3125 55.917969 C 76.238281 56.042969 76.824219 56.132812 77.089844 56.203125 Z M 66.910156 83.75 C 66.910156 84.648438 67.339844 85.363281 68.191406 85.886719 C 69.066406 86.40625 70.292969 86.671875 71.859375 86.671875 C 74.207031 86.671875 76.042969 86.332031 77.375 85.675781 C 78.730469 85.03125 79.40625 84.152344 79.40625 83.035156 C 79.40625 82.128906 78.996094 81.503906 78.195312 81.148438 C 77.410156 80.792969 76.203125 80.613281 74.5625 80.613281 L 71.148438 80.613281 C 69.9375 80.613281 68.921875 80.898438 68.121094 81.46875 C 67.3125 82.039062 66.910156 82.796875 66.910156 83.75 Z M 69.296875 64.078125 C 69.296875 65.386719 69.589844 66.429688 70.1875 67.214844 C 70.773438 67.980469 71.691406 68.355469 72.925781 68.355469 C 74.15625 68.355469 75.0625 67.980469 75.632812 67.214844 C 76.203125 66.429688 76.488281 65.386719 76.488281 64.078125 C 76.488281 61.183594 75.292969 59.730469 72.925781 59.730469 C 70.507812 59.730469 69.296875 61.183594 69.296875 64.078125 Z M 69.296875 64.078125 "/>
<path style=" stroke:none;fill-rule:nonzero;fill:rgb(0%,0%,0%);fill-opacity:1;" d="M 99.476562 60.40625 C 98.070312 60.40625 96.96875 60.863281 96.167969 61.761719 C 95.382812 62.644531 94.929688 63.890625 94.8125 65.503906 L 104.070312 65.503906 C 104.015625 63.890625 103.578125 62.644531 102.75 61.761719 C 101.941406 60.863281 100.847656 60.40625 99.476562 60.40625 Z M 100.402344 80.757812 C 96.503906 80.757812 93.46875 79.6875 91.289062 77.550781 C 89.101562 75.410156 88.015625 72.371094 88.015625 68.425781 C 88.015625 64.390625 89.019531 61.261719 91.039062 59.054688 C 93.050781 56.84375 95.847656 55.738281 99.40625 55.738281 C 102.824219 55.738281 105.476562 56.71875 107.378906 58.660156 C 109.273438 60.585938 110.226562 63.277344 110.226562 66.714844 L 110.226562 69.886719 L 94.671875 69.886719 C 94.742188 71.765625 95.285156 73.238281 96.308594 74.304688 C 97.351562 75.355469 98.808594 75.875 100.6875 75.875 C 102.128906 75.875 103.5 75.722656 104.78125 75.410156 C 106.078125 75.109375 107.449219 74.617188 108.875 73.949219 L 108.875 79.046875 C 107.707031 79.617188 106.472656 80.042969 105.171875 80.328125 C 103.863281 80.613281 102.269531 80.757812 100.402344 80.757812 Z M 100.402344 80.757812 "/>
<path style=" stroke:none;fill-rule:nonzero;fill:rgb(0%,0%,0%);fill-opacity:1;" d="M 137.808594 80.328125 L 131.222656 80.328125 L 131.222656 66.214844 C 131.222656 64.488281 130.914062 63.1875 130.296875 62.332031 C 129.675781 61.460938 128.695312 61.015625 127.34375 61.015625 C 125.511719 61.015625 124.183594 61.636719 123.355469 62.867188 C 122.546875 64.078125 122.148438 66.109375 122.148438 68.960938 L 122.148438 80.328125 L 115.5625 80.328125 L 115.5625 56.203125 L 120.582031 56.203125 L 121.46875 59.269531 L 121.828125 59.269531 C 122.554688 58.109375 123.570312 57.226562 124.851562 56.628906 C 126.152344 56.042969 127.628906 55.738281 129.265625 55.738281 C 132.058594 55.738281 134.1875 56.507812 135.636719 58.019531 C 137.078125 59.542969 137.808594 61.726562 137.808594 64.578125 Z M 137.808594 80.328125 "/>
<path style=" stroke:none;fill-rule:nonzero;fill:rgb(0%,0%,0%);fill-opacity:1;" d="M 154.585938 60.40625 C 153.179688 60.40625 152.078125 60.863281 151.273438 61.761719 C 150.492188 62.644531 150.039062 63.890625 149.921875 65.503906 L 159.175781 65.503906 C 159.125 63.890625 158.6875 62.644531 157.859375 61.761719 C 157.050781 60.863281 155.957031 60.40625 154.585938 60.40625 Z M 155.511719 80.757812 C 151.613281 80.757812 148.578125 79.6875 146.398438 77.550781 C 144.210938 75.410156 143.125 72.371094 143.125 68.425781 C 143.125 64.390625 144.128906 61.261719 146.148438 59.054688 C 148.160156 56.84375 150.953125 55.738281 154.515625 55.738281 C 157.933594 55.738281 160.582031 56.71875 162.488281 58.660156 C 164.382812 60.585938 165.335938 63.277344 165.335938 66.714844 L 165.335938 69.886719 L 149.78125 69.886719 C 149.851562 71.765625 150.394531 73.238281 151.417969 74.304688 C 152.457031 75.355469 153.917969 75.875 155.796875 75.875 C 157.238281 75.875 158.609375 75.722656 159.890625 75.410156 C 161.1875 75.109375 162.558594 74.617188 163.984375 73.949219 L 163.984375 79.046875 C 162.816406 79.617188 161.582031 80.042969 160.28125 80.328125 C 158.972656 80.613281 157.378906 80.757812 155.511719 80.757812 Z M 155.511719 80.757812 "/>
<path style=" stroke:none;fill-rule:nonzero;fill:rgb(0%,0%,0%);fill-opacity:1;" d="M 184.128906 55.738281 C 185.027344 55.738281 185.765625 55.800781 186.335938 55.917969 L 185.871094 62.117188 C 185.320312 61.976562 184.671875 61.90625 183.914062 61.90625 C 181.824219 61.90625 180.1875 62.4375 179.003906 63.507812 C 177.835938 64.578125 177.257812 66.09375 177.257812 68.035156 L 177.257812 80.328125 L 170.671875 80.328125 L 170.671875 56.203125 L 175.65625 56.203125 L 176.617188 60.230469 L 176.9375 60.230469 C 177.695312 58.875 178.699219 57.796875 179.964844 56.988281 C 181.246094 56.160156 182.632812 55.738281 184.128906 55.738281 Z M 184.128906 55.738281 "/>
<path style=" stroke:none;fill-rule:nonzero;fill:rgb(0%,0%,0%);fill-opacity:1;" d="M 206.03125 80.328125 L 204.75 77.050781 L 204.609375 77.050781 C 203.488281 78.457031 202.339844 79.429688 201.15625 79.972656 C 199.988281 80.488281 198.46875 80.757812 196.597656 80.757812 C 194.265625 80.757812 192.441406 80.105469 191.117188 78.796875 C 189.78125 77.46875 189.125 75.582031 189.125 73.128906 C 189.125 70.5625 190.011719 68.675781 191.792969 67.464844 C 193.589844 66.234375 196.296875 65.558594 199.910156 65.433594 L 204.109375 65.289062 L 204.109375 64.257812 C 204.109375 61.816406 202.847656 60.585938 200.335938 60.585938 C 198.414062 60.585938 196.144531 61.175781 193.539062 62.332031 L 191.367188 57.878906 C 194.140625 56.433594 197.210938 55.703125 200.585938 55.703125 C 203.832031 55.703125 206.316406 56.40625 208.023438 57.808594 C 209.75 59.214844 210.625 61.363281 210.625 64.257812 L 210.625 80.328125 Z M 204.109375 69.140625 L 201.546875 69.246094 C 199.640625 69.300781 198.21875 69.636719 197.273438 70.277344 C 196.347656 70.902344 195.886719 71.863281 195.886719 73.164062 C 195.886719 75.019531 196.9375 75.945312 199.054688 75.945312 C 200.59375 75.945312 201.8125 75.507812 202.722656 74.625 C 203.648438 73.753906 204.109375 72.585938 204.109375 71.132812 Z M 204.109375 69.140625 "/>
<path style=" stroke:none;fill-rule:nonzero;fill:rgb(0%,0%,0%);fill-opacity:1;" d="M 227.539062 75.519531 C 228.699219 75.519531 230.085938 75.269531 231.707031 74.769531 L 231.707031 79.652344 C 230.066406 80.382812 228.046875 80.757812 225.652344 80.757812 C 223.019531 80.757812 221.097656 80.097656 219.886719 78.761719 C 218.695312 77.433594 218.109375 75.4375 218.109375 72.773438 L 218.109375 61.121094 L 214.941406 61.121094 L 214.941406 58.339844 L 218.570312 56.132812 L 220.492188 51.035156 L 224.691406 51.035156 L 224.691406 56.203125 L 231.421875 56.203125 L 231.421875 61.121094 L 224.691406 61.121094 L 224.691406 72.773438 C 224.691406 73.699219 224.949219 74.394531 225.476562 74.839844 C 225.992188 75.296875 226.6875 75.519531 227.539062 75.519531 Z M 227.539062 75.519531 "/>
<path style=" stroke:none;fill-rule:nonzero;fill:rgb(0%,0%,0%);fill-opacity:1;" d="M 246.566406 60.40625 C 245.160156 60.40625 244.058594 60.863281 243.257812 61.761719 C 242.472656 62.644531 242.019531 63.890625 241.902344 65.503906 L 251.160156 65.503906 C 251.105469 63.890625 250.667969 62.644531 249.839844 61.761719 C 249.03125 60.863281 247.9375 60.40625 246.566406 60.40625 Z M 247.492188 80.757812 C 243.59375 80.757812 240.558594 79.6875 238.378906 77.550781 C 236.191406 75.410156 235.105469 72.371094 235.105469 68.425781 C 235.105469 64.390625 236.109375 61.261719 238.128906 59.054688 C 240.140625 56.84375 242.9375 55.738281 246.496094 55.738281 C 249.914062 55.738281 252.566406 56.71875 254.46875 58.660156 C 256.363281 60.585938 257.316406 63.277344 257.316406 66.714844 L 257.316406 69.886719 L 241.761719 69.886719 C 241.832031 71.765625 242.375 73.238281 243.398438 74.304688 C 244.441406 75.355469 245.898438 75.875 247.777344 75.875 C 249.21875 75.875 250.589844 75.722656 251.871094 75.410156 C 253.171875 75.109375 254.539062 74.617188 255.964844 73.949219 L 255.964844 79.046875 C 254.796875 79.617188 253.5625 80.042969 252.261719 80.328125 C 250.953125 80.613281 249.359375 80.757812 247.492188 80.757812 Z M 247.492188 80.757812 "/>
<path style=" stroke:none;fill-rule:nonzero;fill:rgb(0%,0%,0%);fill-opacity:1;" d="M 288.042969 53.886719 C 285.523438 53.886719 283.566406 54.839844 282.167969 56.738281 C 280.789062 58.617188 280.105469 61.246094 280.105469 64.613281 C 280.105469 71.667969 282.746094 75.195312 288.042969 75.195312 C 290.25 75.195312 292.929688 74.644531 296.085938 73.523438 L 296.085938 79.152344 C 293.496094 80.222656 290.605469 80.757812 287.402344 80.757812 C 282.820312 80.757812 279.304688 79.367188 276.867188 76.585938 C 274.445312 73.808594 273.234375 69.808594 273.234375 64.578125 C 273.234375 61.300781 273.820312 58.429688 275.015625 55.953125 C 276.222656 53.484375 277.941406 51.597656 280.175781 50.289062 C 282.402344 48.960938 285.027344 48.292969 288.042969 48.292969 C 291.105469 48.292969 294.175781 49.039062 297.261719 50.535156 L 295.125 55.953125 C 293.933594 55.410156 292.742188 54.9375 291.53125 54.527344 C 290.339844 54.101562 289.183594 53.886719 288.042969 53.886719 Z M 288.042969 53.886719 "/>
<path style=" stroke:none;fill-rule:nonzero;fill:rgb(0%,0%,0%);fill-opacity:1;" d="M 331.414062 64.507812 C 331.414062 69.734375 330.105469 73.753906 327.496094 76.550781 C 324.90625 79.359375 321.207031 80.757812 316.390625 80.757812 C 311.550781 80.757812 307.832031 79.359375 305.25 76.550781 C 302.660156 73.753906 301.371094 69.726562 301.371094 64.46875 C 301.371094 59.195312 302.660156 55.1875 305.25 52.425781 C 307.855469 49.644531 311.585938 48.257812 316.425781 48.257812 C 321.269531 48.257812 324.96875 49.664062 327.535156 52.460938 C 330.113281 55.242188 331.414062 59.257812 331.414062 64.507812 Z M 308.382812 64.507812 C 308.382812 68.023438 309.039062 70.6875 310.375 72.488281 C 311.726562 74.269531 313.730469 75.160156 316.390625 75.160156 C 321.730469 75.160156 324.402344 71.617188 324.402344 64.507812 C 324.402344 57.378906 321.738281 53.816406 316.425781 53.816406 C 313.765625 53.816406 311.765625 54.722656 310.410156 56.523438 C 309.058594 58.304688 308.382812 60.96875 308.382812 64.507812 Z M 308.382812 64.507812 "/>
<path style=" stroke:none;fill-rule:nonzero;fill:rgb(0%,0%,0%);fill-opacity:1;" d="M 364.101562 64.257812 C 364.101562 69.441406 362.617188 73.414062 359.652344 76.195312 C 356.679688 78.957031 352.410156 80.328125 346.839844 80.328125 L 337.902344 80.328125 L 337.902344 48.753906 L 347.835938 48.753906 C 352.976562 48.753906 356.984375 50.128906 359.832031 52.851562 C 362.679688 55.5625 364.101562 59.367188 364.101562 64.257812 Z M 357.125 64.398438 C 357.125 57.628906 354.136719 54.242188 348.15625 54.242188 L 344.59375 54.242188 L 344.59375 74.804688 L 347.480469 74.804688 C 353.902344 74.804688 357.125 71.339844 357.125 64.398438 Z M 357.125 64.398438 "/>
<path style=" stroke:none;fill-rule:nonzero;fill:rgb(0%,0%,0%);fill-opacity:1;" d="M 399.246094 64.507812 C 399.246094 69.734375 397.9375 73.753906 395.332031 76.550781 C 392.742188 79.359375 389.039062 80.757812 384.222656 80.757812 C 379.382812 80.757812 375.664062 79.359375 373.082031 76.550781 C 370.492188 73.753906 369.203125 69.726562 369.203125 64.46875 C 369.203125 59.195312 370.492188 55.1875 373.082031 52.425781 C 375.691406 49.644531 379.417969 48.257812 384.257812 48.257812 C 389.101562 48.257812 392.804688 49.664062 395.367188 52.460938 C 397.945312 55.242188 399.246094 59.257812 399.246094 64.507812 Z M 376.214844 64.507812 C 376.214844 68.023438 376.875 70.6875 378.207031 72.488281 C 379.5625 74.269531 381.5625 75.160156 384.222656 75.160156 C 389.5625 75.160156 392.234375 71.617188 392.234375 64.507812 C 392.234375 57.378906 389.574219 53.816406 384.257812 53.816406 C 381.597656 53.816406 379.597656 54.722656 378.242188 56.523438 C 376.890625 58.304688 376.214844 60.96875 376.214844 64.507812 Z M 376.214844 64.507812 "/>
<path style=" stroke:none;fill-rule:nonzero;fill:rgb(0%,0%,0%);fill-opacity:1;" d="M 433.714844 80.328125 L 425.242188 80.328125 L 411.503906 56.453125 L 411.324219 56.453125 C 411.582031 60.65625 411.714844 63.667969 411.714844 65.46875 L 411.714844 80.328125 L 405.734375 80.328125 L 405.734375 48.753906 L 414.171875 48.753906 L 427.875 72.417969 L 428.019531 72.417969 C 427.804688 68.308594 427.699219 65.398438 427.699219 63.6875 L 427.699219 48.753906 L 433.714844 48.753906 Z M 433.714844 80.328125 "/>
<path style=" stroke:none;fill-rule:nonzero;fill:rgb(0%,0%,0%);fill-opacity:1;" d="M 479.304688 64.257812 C 479.304688 69.441406 477.820312 73.414062 474.855469 76.195312 C 471.882812 78.957031 467.613281 80.328125 462.039062 80.328125 L 453.105469 80.328125 L 453.105469 48.753906 L 463.039062 48.753906 C 468.179688 48.753906 472.1875 50.128906 475.035156 52.851562 C 477.882812 55.5625 479.304688 59.367188 479.304688 64.257812 Z M 472.328125 64.398438 C 472.328125 57.628906 469.335938 54.242188 463.359375 54.242188 L 459.796875 54.242188 L 459.796875 74.804688 L 462.679688 74.804688 C 469.105469 74.804688 472.328125 71.339844 472.328125 64.398438 Z M 472.328125 64.398438 "/>
<path style=" stroke:none;fill-rule:nonzero;fill:rgb(0%,0%,0%);fill-opacity:1;" d="M 495.296875 60.40625 C 493.890625 60.40625 492.789062 60.863281 491.988281 61.761719 C 491.203125 62.644531 490.75 63.890625 490.632812 65.503906 L 499.890625 65.503906 C 499.835938 63.890625 499.398438 62.644531 498.570312 61.761719 C 497.761719 60.863281 496.667969 60.40625 495.296875 60.40625 Z M 496.222656 80.757812 C 492.324219 80.757812 489.289062 79.6875 487.109375 77.550781 C 484.921875 75.410156 483.835938 72.371094 483.835938 68.425781 C 483.835938 64.390625 484.839844 61.261719 486.859375 59.054688 C 488.871094 56.84375 491.667969 55.738281 495.226562 55.738281 C 498.644531 55.738281 501.296875 56.71875 503.199219 58.660156 C 505.09375 60.585938 506.046875 63.277344 506.046875 66.714844 L 506.046875 69.886719 L 490.492188 69.886719 C 490.5625 71.765625 491.105469 73.238281 492.128906 74.304688 C 493.171875 75.355469 494.628906 75.875 496.507812 75.875 C 497.949219 75.875 499.320312 75.722656 500.601562 75.410156 C 501.902344 75.109375 503.269531 74.617188 504.695312 73.949219 L 504.695312 79.046875 C 503.527344 79.617188 502.292969 80.042969 500.992188 80.328125 C 499.683594 80.613281 498.089844 80.757812 496.222656 80.757812 Z M 496.222656 80.757812 "/>
<path style=" stroke:none;fill-rule:nonzero;fill:rgb(0%,0%,0%);fill-opacity:1;" d="M 528.21875 73.164062 C 528.21875 75.640625 527.347656 77.53125 525.621094 78.832031 C 523.910156 80.113281 521.347656 80.757812 517.933594 80.757812 C 516.167969 80.757812 514.664062 80.632812 513.410156 80.398438 C 512.175781 80.167969 511.027344 79.820312 509.957031 79.367188 L 509.957031 73.914062 C 511.167969 74.484375 512.539062 74.972656 514.085938 75.375 C 515.625 75.757812 516.980469 75.945312 518.144531 75.945312 C 520.511719 75.945312 521.703125 75.257812 521.703125 73.878906 C 521.703125 73.363281 521.542969 72.941406 521.242188 72.632812 C 520.929688 72.300781 520.386719 71.9375 519.605469 71.527344 C 518.820312 71.097656 517.789062 70.617188 516.507812 70.066406 C 514.628906 69.28125 513.25 68.570312 512.378906 67.925781 C 511.523438 67.269531 510.890625 66.5 510.492188 65.648438 C 510.109375 64.792969 509.921875 63.738281 509.921875 62.476562 C 509.921875 60.335938 510.75 58.6875 512.414062 57.523438 C 514.070312 56.335938 516.417969 55.738281 519.460938 55.738281 C 522.382812 55.738281 525.203125 56.371094 527.933594 57.628906 L 525.976562 62.367188 C 524.765625 61.871094 523.628906 61.460938 522.558594 61.121094 C 521.507812 60.792969 520.441406 60.621094 519.355469 60.621094 C 517.40625 60.621094 516.4375 61.148438 516.4375 62.191406 C 516.4375 62.785156 516.738281 63.292969 517.363281 63.722656 C 518.003906 64.148438 519.375 64.792969 521.492188 65.648438 C 523.386719 66.414062 524.765625 67.125 525.621094 67.785156 C 526.492188 68.453125 527.152344 69.226562 527.578125 70.101562 C 528.003906 70.957031 528.21875 71.980469 528.21875 73.164062 Z M 528.21875 73.164062 "/>
<path style=" stroke:none;fill-rule:nonzero;fill:rgb(0%,0%,0%);fill-opacity:1;" d="M 533.046875 49.929688 C 533.046875 47.792969 534.238281 46.722656 536.644531 46.722656 C 539.011719 46.722656 540.203125 47.792969 540.203125 49.929688 C 540.203125 50.957031 539.898438 51.75 539.3125 52.320312 C 538.714844 52.890625 537.828125 53.175781 536.644531 53.175781 C 534.238281 53.175781 533.046875 52.097656 533.046875 49.929688 Z M 539.917969 80.328125 L 533.332031 80.328125 L 533.332031 56.203125 L 539.917969 56.203125 Z M 539.917969 80.328125 "/>
<path style=" stroke:none;fill-rule:nonzero;fill:rgb(0%,0%,0%);fill-opacity:1;" d="M 567.808594 56.203125 L 567.808594 59.515625 L 564.035156 60.515625 C 564.722656 61.585938 565.070312 62.796875 565.070312 64.148438 C 565.070312 66.742188 564.152344 68.765625 562.328125 70.207031 C 560.519531 71.632812 558.019531 72.347656 554.816406 72.347656 L 553.640625 72.308594 L 552.679688 72.203125 C 551.988281 72.703125 551.648438 73.273438 551.648438 73.914062 C 551.648438 74.867188 552.859375 75.339844 555.28125 75.339844 L 559.375 75.339844 C 562.023438 75.339844 564.046875 75.910156 565.425781 77.050781 C 566.820312 78.191406 567.523438 79.855469 567.523438 82.039062 C 567.523438 84.863281 566.351562 87.046875 564 88.597656 C 561.652344 90.164062 558.269531 90.949219 553.855469 90.949219 C 550.484375 90.949219 547.910156 90.351562 546.132812 89.167969 C 544.371094 88 543.496094 86.359375 543.496094 84.25 C 543.496094 82.796875 543.941406 81.585938 544.851562 80.613281 C 545.75 79.644531 547.074219 78.9375 548.835938 78.511719 C 548.140625 78.226562 547.554688 77.761719 547.058594 77.121094 C 546.558594 76.460938 546.308594 75.757812 546.308594 75.019531 C 546.308594 74.09375 546.566406 73.335938 547.09375 72.738281 C 547.636719 72.125 548.410156 71.519531 549.40625 70.921875 C 548.140625 70.378906 547.144531 69.496094 546.414062 68.285156 C 545.675781 67.070312 545.3125 65.648438 545.3125 64.007812 C 545.3125 61.371094 546.167969 59.339844 547.875 57.914062 C 549.585938 56.46875 552.023438 55.738281 555.207031 55.738281 C 555.867188 55.738281 556.667969 55.800781 557.59375 55.917969 C 558.519531 56.042969 559.105469 56.132812 559.375 56.203125 Z M 549.191406 83.75 C 549.191406 84.648438 549.621094 85.363281 550.472656 85.886719 C 551.347656 86.40625 552.574219 86.671875 554.140625 86.671875 C 556.488281 86.671875 558.324219 86.332031 559.65625 85.675781 C 561.011719 85.03125 561.6875 84.152344 561.6875 83.035156 C 561.6875 82.128906 561.277344 81.503906 560.476562 81.148438 C 559.695312 80.792969 558.484375 80.613281 556.847656 80.613281 L 553.429688 80.613281 C 552.21875 80.613281 551.203125 80.898438 550.402344 81.46875 C 549.59375 82.039062 549.191406 82.796875 549.191406 83.75 Z M 551.578125 64.078125 C 551.578125 65.386719 551.871094 66.429688 552.46875 67.214844 C 553.054688 67.980469 553.972656 68.355469 555.207031 68.355469 C 556.4375 68.355469 557.34375 67.980469 557.914062 67.214844 C 558.484375 66.429688 558.769531 65.386719 558.769531 64.078125 C 558.769531 61.183594 557.574219 59.730469 555.207031 59.730469 C 552.789062 59.730469 551.578125 61.183594 551.578125 64.078125 Z M 551.578125 64.078125 "/>
<path style=" stroke:none;fill-rule:nonzero;fill:rgb(0%,0%,0%);fill-opacity:1;" d="M 594 80.328125 L 587.414062 80.328125 L 587.414062 66.214844 C 587.414062 64.488281 587.105469 63.1875 586.492188 62.332031 C 585.867188 61.460938 584.886719 61.015625 583.535156 61.015625 C 581.703125 61.015625 580.375 61.636719 579.550781 62.867188 C 578.738281 64.078125 578.339844 66.109375 578.339844 68.960938 L 578.339844 80.328125 L 571.753906 80.328125 L 571.753906 56.203125 L 576.773438 56.203125 L 577.664062 59.269531 L 578.019531 59.269531 C 578.75 58.109375 579.761719 57.226562 581.042969 56.628906 C 582.34375 56.042969 583.820312 55.738281 585.457031 55.738281 C 588.253906 55.738281 590.378906 56.507812 591.828125 58.019531 C 593.273438 59.542969 594 61.726562 594 64.578125 Z M 594 80.328125 "/>
<path style=" stroke:none;fill-rule:nonzero;fill:rgb(0%,0%,0%);fill-opacity:1;" d="M 610.777344 60.40625 C 609.371094 60.40625 608.269531 60.863281 607.46875 61.761719 C 606.683594 62.644531 606.230469 63.890625 606.113281 65.503906 L 615.371094 65.503906 C 615.316406 63.890625 614.878906 62.644531 614.050781 61.761719 C 613.242188 60.863281 612.148438 60.40625 610.777344 60.40625 Z M 611.703125 80.757812 C 607.804688 80.757812 604.769531 79.6875 602.589844 77.550781 C 600.402344 75.410156 599.316406 72.371094 599.316406 68.425781 C 599.316406 64.390625 600.320312 61.261719 602.339844 59.054688 C 604.351562 56.84375 607.148438 55.738281 610.707031 55.738281 C 614.125 55.738281 616.777344 56.71875 618.679688 58.660156 C 620.574219 60.585938 621.527344 63.277344 621.527344 66.714844 L 621.527344 69.886719 L 605.972656 69.886719 C 606.042969 71.765625 606.585938 73.238281 607.609375 74.304688 C 608.652344 75.355469 610.109375 75.875 611.988281 75.875 C 613.429688 75.875 614.800781 75.722656 616.082031 75.410156 C 617.378906 75.109375 618.75 74.617188 620.175781 73.949219 L 620.175781 79.046875 C 619.007812 79.617188 617.773438 80.042969 616.472656 80.328125 C 615.164062 80.613281 613.570312 80.757812 611.703125 80.757812 Z M 611.703125 80.757812 "/>
<path style=" stroke:none;fill-rule:nonzero;fill:rgb(0%,0%,0%);fill-opacity:1;" d="M 640.320312 55.738281 C 641.21875 55.738281 641.957031 55.800781 642.527344 55.917969 L 642.0625 62.117188 C 641.511719 61.976562 640.863281 61.90625 640.105469 61.90625 C 638.015625 61.90625 636.378906 62.4375 635.195312 63.507812 C 634.027344 64.578125 633.449219 66.09375 633.449219 68.035156 L 633.449219 80.328125 L 626.863281 80.328125 L 626.863281 56.203125 L 631.847656 56.203125 L 632.808594 60.230469 L 633.128906 60.230469 C 633.886719 58.875 634.890625 57.796875 636.15625 56.988281 C 637.4375 56.160156 638.824219 55.738281 640.320312 55.738281 Z M 640.320312 55.738281 "/>
<path style=" stroke:none;fill-rule:nonzero;fill:rgb(100%,100%,100%);fill-opacity:1;" d="M 316.28125 42.816406 C 304.828125 42.816406 295.546875 52.109375 295.546875 63.574219 C 295.546875 75.039062 304.828125 84.332031 316.28125 84.332031 C 327.726562 84.332031 337.007812 75.039062 337.007812 63.574219 C 337.007812 52.109375 327.726562 42.816406 316.28125 42.816406 Z M 316.28125 42.816406 "/>
<path style=" stroke:none;fill-rule:nonzero;fill:rgb(32.156863%,44.313725%,100%);fill-opacity:1;" d="M 307.214844 61.96875 L 305.792969 62.363281 L 305.792969 64.820312 L 307.214844 65.214844 L 307.214844 67.457031 L 299.597656 65 L 299.597656 62.253906 L 307.214844 59.761719 Z M 304.117188 62.789062 L 302.871094 63.109375 C 302.589844 63.183594 302.230469 63.28125 301.804688 63.394531 C 301.359375 63.492188 301.039062 63.566406 300.84375 63.609375 C 301.039062 63.636719 301.332031 63.699219 301.734375 63.789062 C 302.144531 63.886719 302.933594 64.089844 304.117188 64.394531 Z M 304.117188 62.789062 "/>
<path style=" stroke:none;fill-rule:nonzero;fill:rgb(100%,56.862745%,30.196078%);fill-opacity:1;" d="M 311.140625 55.898438 L 309.679688 57.363281 L 305.515625 53.191406 L 304.199219 54.511719 L 302.988281 53.300781 L 307.046875 49.238281 L 308.257812 50.449219 L 306.976562 51.730469 Z M 311.140625 55.898438 "/>
<path style=" stroke:none;fill-rule:nonzero;fill:rgb(100%,40%,76.862745%);fill-opacity:1;" d="M 316.464844 48.980469 L 319.738281 48.980469 L 319.738281 53.078125 C 318.859375 53.390625 317.886719 53.542969 316.820312 53.542969 C 315.652344 53.542969 314.753906 53.210938 314.113281 52.542969 C 313.472656 51.859375 313.152344 50.886719 313.152344 49.621094 C 313.152344 48.410156 313.492188 47.464844 314.1875 46.769531 C 314.898438 46.085938 315.875 45.738281 317.140625 45.738281 C 317.613281 45.738281 318.066406 45.789062 318.492188 45.878906 C 318.921875 45.976562 319.285156 46.09375 319.597656 46.234375 L 318.957031 47.839844 C 318.402344 47.554688 317.796875 47.410156 317.140625 47.410156 C 316.542969 47.410156 316.082031 47.617188 315.75 48.019531 C 315.441406 48.402344 315.289062 48.960938 315.289062 49.691406 C 315.289062 50.386719 315.429688 50.921875 315.714844 51.296875 C 316 51.679688 316.429688 51.867188 316.996094 51.867188 C 317.300781 51.867188 317.578125 51.832031 317.816406 51.757812 L 317.816406 50.582031 L 316.464844 50.582031 Z M 316.464844 48.980469 "/>
<path style=" stroke:none;fill-rule:nonzero;fill:rgb(49.411765%,85.098039%,34.117647%);fill-opacity:1;" d="M 327.550781 52.925781 C 327.214844 52.597656 326.804688 52.480469 326.304688 52.570312 C 325.824219 52.640625 325.34375 52.925781 324.847656 53.425781 C 323.824219 54.441406 323.714844 55.359375 324.527344 56.171875 C 324.738281 56.382812 324.996094 56.570312 325.308594 56.738281 C 325.609375 56.902344 325.914062 57.0625 326.199219 57.203125 L 324.988281 58.414062 C 324.347656 58.148438 323.742188 57.738281 323.171875 57.167969 C 322.363281 56.355469 321.972656 55.5 322 54.601562 C 322.042969 53.730469 322.515625 52.839844 323.421875 51.929688 C 323.964844 51.386719 324.542969 51.003906 325.167969 50.789062 C 325.808594 50.558594 326.429688 50.53125 327.054688 50.71875 C 327.695312 50.886719 328.261719 51.214844 328.761719 51.714844 C 329.347656 52.3125 329.777344 53 330.042969 53.78125 L 328.476562 54.496094 C 328.378906 54.210938 328.261719 53.941406 328.121094 53.675781 C 327.976562 53.417969 327.78125 53.167969 327.550781 52.925781 Z M 327.550781 52.925781 "/>
<path style=" stroke:none;fill-rule:nonzero;fill:rgb(100%,8.627451%,8.627451%);fill-opacity:1;" d="M 325.609375 67.238281 L 325.609375 64.53125 L 330.949219 61.75 L 330.949219 61.714844 C 330.113281 61.785156 329.472656 61.820312 329.027344 61.820312 L 325.609375 61.820312 L 325.609375 60.003906 L 333.191406 60.003906 L 333.191406 62.675781 L 327.921875 65.421875 L 327.921875 65.457031 C 328.679688 65.402344 329.292969 65.386719 329.773438 65.386719 L 333.191406 65.386719 L 333.191406 67.238281 Z M 325.609375 67.238281 "/>
<path style=" stroke:none;fill-rule:nonzero;fill:rgb(100%,74.117647%,34.901961%);fill-opacity:1;" d="M 320.324219 81 L 317.691406 81 C 316.648438 81 315.875 80.839844 315.378906 80.535156 C 314.878906 80.222656 314.628906 79.753906 314.628906 79.109375 C 314.628906 78.683594 314.753906 78.308594 314.984375 78.007812 C 315.199219 77.722656 315.484375 77.523438 315.839844 77.4375 L 315.839844 77.363281 C 315.367188 77.238281 315.023438 77.042969 314.808594 76.757812 C 314.59375 76.472656 314.488281 76.089844 314.488281 75.617188 C 314.488281 74.921875 314.753906 74.378906 315.269531 73.980469 C 315.796875 73.597656 316.5 73.410156 317.371094 73.410156 L 320.324219 73.410156 Z M 318.296875 78.078125 L 317.65625 78.078125 C 317.371094 78.078125 317.148438 78.128906 316.980469 78.253906 C 316.820312 78.371094 316.730469 78.550781 316.730469 78.789062 C 316.730469 79.21875 317.050781 79.429688 317.691406 79.429688 L 318.296875 79.429688 Z M 318.296875 76.582031 L 318.296875 74.976562 L 317.550781 74.976562 C 316.910156 74.976562 316.589844 75.246094 316.589844 75.796875 C 316.589844 76.054688 316.6875 76.242188 316.871094 76.367188 C 317.042969 76.507812 317.28125 76.582031 317.585938 76.582031 Z M 318.296875 76.582031 "/>
<path style=" stroke:none;fill-rule:nonzero;fill:rgb(36.078431%,88.235294%,90.196078%);fill-opacity:1;" d="M 323.855469 69.039062 L 325.492188 67.398438 L 329.125 74.523438 L 327.414062 76.234375 L 320.296875 72.601562 L 321.933594 70.960938 L 325.386719 72.992188 C 326.144531 73.421875 326.640625 73.757812 326.882812 73.992188 C 326.738281 73.804688 326.5625 73.554688 326.347656 73.242188 C 326.132812 72.9375 325.972656 72.691406 325.882812 72.492188 Z M 323.855469 69.039062 "/>
<path style=" stroke:none;fill-rule:nonzero;fill:rgb(54.901961%,32.156863%,100%);fill-opacity:1;" d="M 307.84375 78.308594 L 306.207031 76.671875 L 307.167969 73.570312 L 306.492188 73.390625 L 304.710938 75.171875 L 303.25 73.710938 L 308.625 68.332031 L 310.085938 69.792969 L 307.738281 72.144531 C 307.949219 72.074219 308.324219 71.984375 308.875 71.859375 L 311.652344 71.359375 L 313.253906 72.964844 L 309.125 73.675781 Z M 307.84375 78.308594 "/>
<path style=" stroke:none;fill-rule:nonzero;fill:rgb(100%,100%,100%);fill-opacity:1;" d="M 384.316406 42.816406 C 372.863281 42.816406 363.582031 52.109375 363.582031 63.574219 C 363.582031 75.039062 372.863281 84.332031 384.316406 84.332031 C 395.761719 84.332031 405.042969 75.039062 405.042969 63.574219 C 405.042969 52.109375 395.761719 42.816406 384.316406 42.816406 Z M 384.316406 42.816406 "/>
<path style=" stroke:none;fill-rule:nonzero;fill:rgb(32.156863%,44.313725%,100%);fill-opacity:1;" d="M 375.25 61.96875 L 373.824219 62.363281 L 373.824219 64.820312 L 375.25 65.214844 L 375.25 67.457031 L 367.632812 65 L 367.632812 62.253906 L 375.25 59.761719 Z M 372.152344 62.789062 L 370.90625 63.109375 C 370.621094 63.183594 370.265625 63.28125 369.839844 63.394531 C 369.394531 63.492188 369.074219 63.566406 368.875 63.609375 C 369.074219 63.636719 369.367188 63.699219 369.765625 63.789062 C 370.175781 63.886719 370.96875 64.089844 372.152344 64.394531 Z M 372.152344 62.789062 "/>
<path style=" stroke:none;fill-rule:nonzero;fill:rgb(100%,56.862745%,30.196078%);fill-opacity:1;" d="M 379.175781 55.898438 L 377.714844 57.363281 L 373.550781 53.191406 L 372.234375 54.511719 L 371.023438 53.300781 L 375.082031 49.238281 L 376.292969 50.449219 L 375.011719 51.730469 Z M 379.175781 55.898438 "/>
<path style=" stroke:none;fill-rule:nonzero;fill:rgb(100%,40%,76.862745%);fill-opacity:1;" d="M 384.496094 48.980469 L 387.773438 48.980469 L 387.773438 53.078125 C 386.890625 53.390625 385.921875 53.542969 384.851562 53.542969 C 383.6875 53.542969 382.789062 53.210938 382.148438 52.542969 C 381.507812 51.859375 381.1875 50.886719 381.1875 49.621094 C 381.1875 48.410156 381.523438 47.464844 382.21875 46.769531 C 382.929688 46.085938 383.910156 45.738281 385.171875 45.738281 C 385.644531 45.738281 386.097656 45.789062 386.527344 45.878906 C 386.953125 45.976562 387.316406 46.09375 387.628906 46.234375 L 386.988281 47.839844 C 386.4375 47.554688 385.832031 47.410156 385.171875 47.410156 C 384.578125 47.410156 384.113281 47.617188 383.785156 48.019531 C 383.472656 48.402344 383.320312 48.960938 383.320312 49.691406 C 383.320312 50.386719 383.464844 50.921875 383.75 51.296875 C 384.035156 51.679688 384.460938 51.867188 385.03125 51.867188 C 385.332031 51.867188 385.609375 51.832031 385.847656 51.757812 L 385.847656 50.582031 L 384.496094 50.582031 Z M 384.496094 48.980469 "/>
<path style=" stroke:none;fill-rule:nonzero;fill:rgb(49.411765%,85.098039%,34.117647%);fill-opacity:1;" d="M 395.585938 52.925781 C 395.246094 52.597656 394.835938 52.480469 394.339844 52.570312 C 393.859375 52.640625 393.378906 52.925781 392.878906 53.425781 C 391.855469 54.441406 391.75 55.359375 392.558594 56.171875 C 392.773438 56.382812 393.03125 56.570312 393.339844 56.738281 C 393.644531 56.902344 393.945312 57.0625 394.230469 57.203125 L 393.019531 58.414062 C 392.378906 58.148438 391.773438 57.738281 391.207031 57.167969 C 390.394531 56.355469 390.003906 55.5 390.03125 54.601562 C 390.074219 53.730469 390.546875 52.839844 391.453125 51.929688 C 391.996094 51.386719 392.578125 51.003906 393.199219 50.789062 C 393.839844 50.558594 394.460938 50.53125 395.085938 50.71875 C 395.726562 50.886719 396.296875 51.214844 396.792969 51.714844 C 397.382812 52.3125 397.808594 53 398.074219 53.78125 L 396.507812 54.496094 C 396.410156 54.210938 396.296875 53.941406 396.152344 53.675781 C 396.011719 53.417969 395.816406 53.167969 395.585938 52.925781 Z M 395.585938 52.925781 "/>
<path style=" stroke:none;fill-rule:nonzero;fill:rgb(100%,8.627451%,8.627451%);fill-opacity:1;" d="M 393.640625 67.238281 L 393.640625 64.53125 L 398.980469 61.75 L 398.980469 61.714844 C 398.144531 61.785156 397.503906 61.820312 397.058594 61.820312 L 393.640625 61.820312 L 393.640625 60.003906 L 401.222656 60.003906 L 401.222656 62.675781 L 395.957031 65.421875 L 395.957031 65.457031 C 396.710938 65.402344 397.328125 65.386719 397.808594 65.386719 L 401.222656 65.386719 L 401.222656 67.238281 Z M 393.640625 67.238281 "/>
<path style=" stroke:none;fill-rule:nonzero;fill:rgb(100%,74.117647%,34.901961%);fill-opacity:1;" d="M 388.359375 81 L 385.722656 81 C 384.683594 81 383.910156 80.839844 383.410156 80.535156 C 382.914062 80.222656 382.664062 79.753906 382.664062 79.109375 C 382.664062 78.683594 382.789062 78.308594 383.019531 78.007812 C 383.234375 77.722656 383.515625 77.523438 383.875 77.4375 L 383.875 77.363281 C 383.402344 77.238281 383.054688 77.042969 382.839844 76.757812 C 382.628906 76.472656 382.519531 76.089844 382.519531 75.617188 C 382.519531 74.921875 382.789062 74.378906 383.304688 73.980469 C 383.828125 73.597656 384.53125 73.410156 385.402344 73.410156 L 388.359375 73.410156 Z M 386.328125 78.078125 L 385.6875 78.078125 C 385.402344 78.078125 385.179688 78.128906 385.011719 78.253906 C 384.851562 78.371094 384.761719 78.550781 384.761719 78.789062 C 384.761719 79.21875 385.082031 79.429688 385.722656 79.429688 L 386.328125 79.429688 Z M 386.328125 76.582031 L 386.328125 74.976562 L 385.582031 74.976562 C 384.941406 74.976562 384.621094 75.246094 384.621094 75.796875 C 384.621094 76.054688 384.71875 76.242188 384.90625 76.367188 C 385.074219 76.507812 385.316406 76.582031 385.617188 76.582031 Z M 386.328125 76.582031 "/>
<path style=" stroke:none;fill-rule:nonzero;fill:rgb(36.078431%,88.235294%,90.196078%);fill-opacity:1;" d="M 391.890625 69.039062 L 393.527344 67.398438 L 397.160156 74.523438 L 395.449219 76.234375 L 388.332031 72.601562 L 389.96875 70.960938 L 393.421875 72.992188 C 394.179688 73.421875 394.675781 73.757812 394.917969 73.992188 C 394.773438 73.804688 394.597656 73.554688 394.382812 73.242188 C 394.167969 72.9375 394.007812 72.691406 393.917969 72.492188 Z M 391.890625 69.039062 "/>
<path style=" stroke:none;fill-rule:nonzero;fill:rgb(54.901961%,32.156863%,100%);fill-opacity:1;" d="M 375.875 78.308594 L 374.238281 76.671875 L 375.199219 73.570312 L 374.523438 73.390625 L 372.742188 75.171875 L 371.285156 73.710938 L 376.660156 68.332031 L 378.117188 69.792969 L 375.769531 72.144531 C 375.984375 72.074219 376.355469 71.984375 376.910156 71.859375 L 379.683594 71.359375 L 381.289062 72.964844 L 377.15625 73.675781 Z M 375.875 78.308594 "/>
</g>
</svg>
